{"glyphs":{"0":{"ha":1389,"x_min":0,"x_max":1215,"o":"m 347 174 l 868 174 l 868 1389 l 347 1389 l 347 174 m 1042 0 l 174 0 l 174 174 l 0 174 l 0 1389 l 174 1389 l 174 1563 l 1042 1563 l 1042 1389 l 1215 1389 l 1215 174 l 1042 174 l 1042 0 z "},"1":{"ha":868,"x_min":0,"x_max":521,"o":"m 174 1215 l 0 1215 l 0 1389 l 174 1389 l 174 1563 l 521 1563 l 521 0 l 174 0 l 174 1215 z "},"2":{"ha":1389,"x_min":0,"x_max":1215,"o":"m 0 1215 l 0 1389 l 174 1389 l 174 1563 l 1042 1563 l 1042 1389 l 1215 1389 l 1215 1042 l 1042 1042 l 1042 868 l 868 868 l 868 694 l 694 694 l 694 521 l 521 521 l 521 347 l 347 347 l 347 174 l 1215 174 l 1215 0 l 0 0 l 0 347 l 174 347 l 174 521 l 347 521 l 347 694 l 521 694 l 521 868 l 694 868 l 694 1042 l 868 1042 l 868 1389 l 347 1389 l 347 1215 l 0 1215 z "},"3":{"ha":1389,"x_min":0,"x_max":1215,"o":"m 347 1389 l 347 1215 l 0 1215 l 0 1389 l 174 1389 l 174 1563 l 1042 1563 l 1042 1389 l 1215 1389 l 1215 868 l 1042 868 l 1042 694 l 1215 694 l 1215 174 l 1042 174 l 1042 0 l 174 0 l 174 174 l 0 174 l 0 347 l 347 347 l 347 174 l 868 174 l 868 694 l 347 694 l 347 868 l 868 868 l 868 1389 l 347 1389 z "},"4":{"ha":1389,"x_min":0,"x_max":1215,"o":"m 347 868 l 347 694 l 694 694 l 694 1042 l 521 1042 l 521 868 l 347 868 m 347 1042 l 347 1215 l 521 1215 l 521 1389 l 694 1389 l 694 1563 l 1042 1563 l 1042 694 l 1215 694 l 1215 521 l 1042 521 l 1042 0 l 694 0 l 694 521 l 0 521 l 0 868 l 174 868 l 174 1042 l 347 1042 z "},"5":{"ha":1389,"x_min":0,"x_max":1215,"o":"m 0 347 l 347 347 l 347 174 l 868 174 l 868 868 l 0 868 l 0 1563 l 1215 1563 l 1215 1389 l 347 1389 l 347 1042 l 1042 1042 l 1042 868 l 1215 868 l 1215 174 l 1042 174 l 1042 0 l 174 0 l 174 174 l 0 174 l 0 347 z "},"6":{"ha":1389,"x_min":0,"x_max":1215,"o":"m 861 694 l 353 694 l 353 174 l 861 174 l 861 694 m 1215 174 l 1042 174 l 1042 0 l 174 0 l 174 174 l 0 174 l 0 1389 l 174 1389 l 174 1563 l 1042 1563 l 1042 1389 l 1215 1389 l 1215 1215 l 868 1215 l 868 1389 l 347 1389 l 347 868 l 1042 868 l 1042 694 l 1215 694 l 1215 174 z "},"7":{"ha":1389,"x_min":0,"x_max":1215,"o":"m 347 347 l 521 347 l 521 694 l 694 694 l 694 1042 l 868 1042 l 868 1389 l 0 1389 l 0 1563 l 1215 1563 l 1215 1042 l 1042 1042 l 1042 694 l 868 694 l 868 347 l 694 347 l 694 0 l 347 0 l 347 347 z "},"8":{"ha":1389,"x_min":0,"x_max":1215,"o":"m 174 868 l 0 868 l 0 1389 l 174 1389 l 174 1563 l 1042 1563 l 1042 1389 l 1215 1389 l 1215 868 l 1042 868 l 1042 694 l 1215 694 l 1215 174 l 1042 174 l 1042 0 l 174 0 l 174 174 l 0 174 l 0 694 l 174 694 l 174 868 m 354 1389 l 354 868 l 861 868 l 861 1389 l 354 1389 m 354 174 l 861 174 l 861 694 l 354 694 l 354 174 z "},"9":{"ha":1389,"x_min":0,"x_max":1215,"o":"m 354 868 l 863 868 l 863 1389 l 354 1389 l 354 868 m 0 1389 l 174 1389 l 174 1563 l 1042 1563 l 1042 1389 l 1215 1389 l 1215 174 l 1042 174 l 1042 0 l 174 0 l 174 174 l 0 174 l 0 347 l 347 347 l 347 174 l 868 174 l 868 694 l 174 694 l 174 868 l 0 868 l 0 1389 z "}," ":{"ha":694,"x_min":0,"x_max":0,"o":""},"!":{"ha":868,"x_min":174,"x_max":521,"o":"m 521 347 l 174 347 l 174 1563 l 521 1563 l 521 347 m 521 0 l 174 0 l 174 174 l 521 174 l 521 0 z "},"\"":{"ha":1042,"x_min":0,"x_max":868,"o":"m 0 1076 l 0 1563 l 347 1563 l 347 1076 l 0 1076 m 521 1563 l 868 1563 l 868 1076 l 521 1076 l 521 1563 z "},"#":{"ha":1563,"x_min":0,"x_max":1215,"o":"m 694 868 l 521 868 l 521 694 l 694 694 l 694 868 m 1215 868 l 868 868 l 868 694 l 1215 694 l 1215 521 l 868 521 l 868 174 l 694 174 l 694 521 l 521 521 l 521 174 l 347 174 l 347 521 l 0 521 l 0 694 l 347 694 l 347 868 l 0 868 l 0 1042 l 347 1042 l 347 1389 l 521 1389 l 521 1042 l 694 1042 l 694 1389 l 868 1389 l 868 1042 l 1215 1042 l 1215 868 z "},"$":{"ha":1389,"x_min":0,"x_max":1215,"o":"m 521 875 l 521 1382 l 347 1382 l 347 875 l 521 875 m 694 688 l 694 181 l 868 181 l 868 688 l 694 688 m 694 1389 l 694 868 l 1042 868 l 1042 694 l 1215 694 l 1215 174 l 1042 174 l 1042 0 l 694 0 l 694 -174 l 521 -174 l 521 0 l 174 0 l 174 174 l 0 174 l 0 347 l 347 347 l 347 174 l 521 174 l 521 694 l 174 694 l 174 868 l 0 868 l 0 1389 l 174 1389 l 174 1563 l 521 1563 l 521 1736 l 694 1736 l 694 1563 l 1042 1563 l 1042 1389 l 1215 1389 l 1215 1215 l 868 1215 l 868 1389 l 694 1389 z "},"%":{"ha":1215,"x_min":0,"x_max":1042,"o":"m 174 1049 l 347 1049 l 347 1382 l 174 1382 l 174 1049 m 694 181 l 868 181 l 868 514 l 694 514 l 694 181 m 521 521 l 694 521 l 694 688 l 521 688 l 521 521 m 347 875 l 521 875 l 521 1042 l 347 1042 l 347 875 m 868 0 l 694 0 l 694 174 l 521 174 l 521 347 l 347 347 l 347 0 l 0 0 l 0 347 l 174 347 l 174 694 l 347 694 l 347 868 l 174 868 l 174 1042 l 0 1042 l 0 1389 l 174 1389 l 174 1563 l 347 1563 l 347 1389 l 521 1389 l 521 1215 l 694 1215 l 694 1563 l 1042 1563 l 1042 1208 l 868 1208 l 868 861 l 694 861 l 694 694 l 868 694 l 868 521 l 1042 521 l 1042 174 l 868 174 l 868 0 z "},"&":{"ha":1563,"x_min":0,"x_max":1394,"o":"m 874 521 l 1047 521 l 1047 868 l 1215 868 l 1215 521 l 1047 521 l 1047 347 l 1221 347 l 1221 174 l 1394 174 l 1394 0 l 1047 0 l 1047 174 l 874 174 l 874 0 l 174 0 l 174 174 l 0 174 l 0 694 l 174 694 l 174 1042 l 0 1042 l 0 1389 l 174 1389 l 174 1563 l 874 1563 l 874 1389 l 1047 1389 l 1047 1042 l 874 1042 l 874 868 l 700 868 l 700 694 l 874 694 l 874 521 m 686 174 l 686 521 l 526 521 l 526 694 l 353 694 l 353 174 l 686 174 m 686 868 l 686 1389 l 353 1389 l 353 1042 l 526 1042 l 526 868 l 686 868 z "},"'":{"ha":521,"x_min":0,"x_max":347,"o":"m 0 1076 l 0 1563 l 347 1563 l 347 1076 l 0 1076 z "},"(":{"ha":868,"x_min":0,"x_max":694,"o":"m 347 1736 l 694 1736 l 694 1563 l 521 1563 l 521 1215 l 347 1215 l 347 347 l 521 347 l 521 0 l 694 0 l 694 -174 l 347 -174 l 347 0 l 174 0 l 174 347 l 0 347 l 0 1215 l 174 1215 l 174 1563 l 347 1563 l 347 1736 z "},")":{"ha":868,"x_min":0,"x_max":694,"o":"m 347 1736 l 347 1563 l 521 1563 l 521 1215 l 694 1215 l 694 347 l 521 347 l 521 0 l 347 0 l 347 -174 l 0 -174 l 0 0 l 174 0 l 174 347 l 347 347 l 347 1215 l 174 1215 l 174 1563 l 0 1563 l 0 1736 l 347 1736 z "},"*":{"ha":1042,"x_min":0,"x_max":868,"o":"m 347 1215 l 521 1215 l 521 1042 l 694 1042 l 694 1215 l 868 1215 l 868 1042 l 694 1042 l 694 868 l 868 868 l 868 694 l 694 694 l 694 521 l 868 521 l 868 347 l 694 347 l 694 521 l 521 521 l 521 347 l 347 347 l 347 521 l 174 521 l 174 347 l 0 347 l 0 521 l 174 521 l 174 694 l 0 694 l 0 868 l 174 868 l 174 1042 l 0 1042 l 0 1215 l 174 1215 l 174 1042 l 347 1042 l 347 1215 z "},"+":{"ha":1215,"x_min":0,"x_max":1042,"o":"m 1042 521 l 694 521 l 694 174 l 347 174 l 347 521 l 0 521 l 0 868 l 347 868 l 347 1215 l 694 1215 l 694 868 l 1042 868 l 1042 521 z "},",":{"ha":694,"x_min":0,"x_max":521,"o":"m 0 -347 l 0 -174 l 174 -174 l 174 174 l 521 174 l 521 -174 l 347 -174 l 347 -347 l 0 -347 z "},"-":{"ha":1215,"x_min":0,"x_max":1042,"o":"m 1042 521 l 0 521 l 0 868 l 1042 868 l 1042 521 z "},".":{"ha":521,"x_min":0,"x_max":347,"o":"m 0 347 l 347 347 l 347 0 l 0 0 l 0 347 z "},"/":{"ha":1215,"x_min":0,"x_max":1042,"o":"m 1042 1736 l 1042 1389 l 868 1389 l 868 1042 l 694 1042 l 694 694 l 521 694 l 521 347 l 347 347 l 347 0 l 0 0 l 0 347 l 174 347 l 174 694 l 347 694 l 347 1042 l 521 1042 l 521 1389 l 694 1389 l 694 1736 l 1042 1736 z "},":":{"ha":694,"x_min":174,"x_max":521,"o":"m 174 521 l 521 521 l 521 174 l 174 174 l 174 521 m 174 1042 l 521 1042 l 521 694 l 174 694 l 174 1042 z "},";":{"ha":694,"x_min":0,"x_max":521,"o":"m 174 1042 l 521 1042 l 521 717 l 174 717 l 174 1042 m 0 -347 l 0 -174 l 174 -174 l 174 347 l 521 347 l 521 -174 l 347 -174 l 347 -347 l 0 -347 z "},"<":{"ha":1042,"x_min":0,"x_max":868,"o":"m 521 1215 l 521 1389 l 868 1389 l 868 1215 l 694 1215 l 694 1042 l 521 1042 l 521 868 l 347 868 l 347 694 l 521 694 l 521 521 l 694 521 l 694 347 l 868 347 l 868 174 l 521 174 l 521 347 l 347 347 l 347 521 l 174 521 l 174 694 l 0 694 l 0 868 l 174 868 l 174 1042 l 347 1042 l 347 1215 l 521 1215 z "},"=":{"ha":1215,"x_min":0,"x_max":1042,"o":"m 1042 868 l 0 868 l 0 1215 l 1042 1215 l 1042 868 m 1042 347 l 0 347 l 0 694 l 1042 694 l 1042 347 z "},">":{"ha":1042,"x_min":0,"x_max":868,"o":"m 347 1215 l 521 1215 l 521 1042 l 694 1042 l 694 868 l 868 868 l 868 694 l 694 694 l 694 521 l 521 521 l 521 347 l 347 347 l 347 174 l 0 174 l 0 347 l 174 347 l 174 521 l 347 521 l 347 694 l 521 694 l 521 868 l 347 868 l 347 1042 l 174 1042 l 174 1215 l 0 1215 l 0 1389 l 347 1389 l 347 1215 z "},"?":{"ha":1215,"x_min":0,"x_max":1042,"o":"m 347 0 l 347 174 l 694 174 l 694 0 l 347 0 m 521 694 l 521 868 l 694 868 l 694 1389 l 347 1389 l 347 1215 l 0 1215 l 0 1389 l 174 1389 l 174 1563 l 868 1563 l 868 1389 l 1042 1389 l 1042 868 l 868 868 l 868 694 l 694 694 l 694 347 l 347 347 l 347 694 l 521 694 z "},"@":{"ha":1910,"x_min":0,"x_max":1739,"o":"m 857 354 l 1042 354 l 1042 688 l 857 688 l 857 354 m 1042 174 l 694 174 l 694 347 l 521 347 l 521 694 l 694 694 l 694 868 l 1042 868 l 1042 694 l 1215 694 l 1215 521 l 1389 521 l 1389 868 l 1215 868 l 1215 1042 l 521 1042 l 521 868 l 347 868 l 347 174 l 521 174 l 521 0 l 1389 0 l 1389 -174 l 347 -174 l 347 0 l 174 0 l 174 174 l 0 174 l 0 868 l 174 868 l 174 1042 l 347 1042 l 347 1215 l 1392 1215 l 1392 1042 l 1565 1042 l 1565 868 l 1739 868 l 1739 347 l 1563 347 l 1563 174 l 1215 174 l 1215 347 l 1042 347 l 1042 174 z "},"A":{"ha":1389,"x_min":0,"x_max":1215,"o":"m 174 1389 l 174 1563 l 1042 1563 l 1042 1389 l 1215 1389 l 1215 0 l 868 0 l 868 694 l 347 694 l 347 0 l 0 0 l 0 1389 l 174 1389 m 868 1389 l 347 1389 l 347 868 l 868 868 l 868 1389 z "},"B":{"ha":1389,"x_min":0,"x_max":1215,"o":"m 1042 1389 l 1215 1389 l 1215 868 l 1042 868 l 1042 694 l 1215 694 l 1215 174 l 1042 174 l 1042 0 l 0 0 l 0 1563 l 1042 1563 l 1042 1389 m 347 868 l 868 868 l 868 1389 l 347 1389 l 347 868 m 868 174 l 868 694 l 347 694 l 347 174 l 868 174 z "},"C":{"ha":1389,"x_min":0,"x_max":1215,"o":"m 868 174 l 868 347 l 1215 347 l 1215 174 l 1042 174 l 1042 0 l 174 0 l 174 174 l 0 174 l 0 1389 l 174 1389 l 174 1563 l 1042 1563 l 1042 1389 l 1215 1389 l 1215 1215 l 868 1215 l 868 1389 l 347 1389 l 347 174 l 868 174 z "},"D":{"ha":1389,"x_min":0,"x_max":1215,"o":"m 1042 174 l 1042 0 l 0 0 l 0 1563 l 1042 1563 l 1042 1389 l 1215 1389 l 1215 174 l 1042 174 m 861 1389 l 347 1389 l 347 174 l 861 174 l 861 1389 z "},"E":{"ha":1389,"x_min":0,"x_max":1215,"o":"m 1215 1389 l 347 1389 l 347 868 l 1042 868 l 1042 694 l 347 694 l 347 174 l 1215 174 l 1215 0 l 0 0 l 0 1563 l 1215 1563 l 1215 1389 z "},"F":{"ha":1389,"x_min":0,"x_max":1215,"o":"m 1215 1389 l 347 1389 l 347 868 l 1042 868 l 1042 694 l 347 694 l 347 0 l 0 0 l 0 1563 l 1215 1563 l 1215 1389 z "},"G":{"ha":1389,"x_min":0,"x_max":1215,"o":"m 1215 868 l 1215 174 l 1042 174 l 1042 0 l 174 0 l 174 174 l 0 174 l 0 1389 l 174 1389 l 174 1563 l 1042 1563 l 1042 1389 l 1215 1389 l 1215 1215 l 868 1215 l 868 1389 l 347 1389 l 347 174 l 868 174 l 868 694 l 521 694 l 521 868 l 1215 868 z "},"H":{"ha":1389,"x_min":0,"x_max":1215,"o":"m 868 1563 l 1215 1563 l 1215 0 l 868 0 l 868 694 l 347 694 l 347 0 l 0 0 l 0 1563 l 347 1563 l 347 868 l 868 868 l 868 1563 z "},"I":{"ha":521,"x_min":0,"x_max":347,"o":"m 347 0 l 0 0 l 0 1563 l 347 1563 l 347 0 z "},"J":{"ha":1215,"x_min":0,"x_max":1042,"o":"m 0 347 l 347 347 l 347 174 l 694 174 l 694 1563 l 1042 1563 l 1042 174 l 868 174 l 868 0 l 174 0 l 174 174 l 0 174 l 0 347 z "},"K":{"ha":1389,"x_min":0,"x_max":1215,"o":"m 868 1563 l 1215 1563 l 1215 1389 l 1042 1389 l 1042 1215 l 868 1215 l 868 1042 l 694 1042 l 694 868 l 521 868 l 521 694 l 694 694 l 694 521 l 868 521 l 868 347 l 1042 347 l 1042 174 l 1215 174 l 1215 0 l 868 0 l 868 174 l 694 174 l 694 347 l 521 347 l 521 521 l 347 521 l 347 0 l 0 0 l 0 1563 l 347 1563 l 347 1042 l 521 1042 l 521 1215 l 694 1215 l 694 1389 l 868 1389 l 868 1563 z "},"L":{"ha":1215,"x_min":0,"x_max":1042,"o":"m 347 174 l 1042 174 l 1042 0 l 0 0 l 0 1563 l 347 1563 l 347 174 z "},"M":{"ha":1736,"x_min":0,"x_max":1563,"o":"m 1563 1563 l 1563 0 l 1215 0 l 1215 694 l 1042 694 l 1042 521 l 868 521 l 868 347 l 694 347 l 694 521 l 521 521 l 521 694 l 347 694 l 347 0 l 0 0 l 0 1563 l 347 1563 l 347 1215 l 521 1215 l 521 1042 l 694 1042 l 694 868 l 868 868 l 868 1042 l 1042 1042 l 1042 1215 l 1215 1215 l 1215 1563 l 1563 1563 z "},"N":{"ha":1389,"x_min":0,"x_max":1215,"o":"m 1215 1563 l 1215 0 l 868 0 l 868 347 l 694 347 l 694 521 l 521 521 l 521 694 l 347 694 l 347 0 l 0 0 l 0 1563 l 347 1563 l 347 1215 l 521 1215 l 521 1042 l 694 1042 l 694 868 l 868 868 l 868 1563 l 1215 1563 z "},"O":{"ha":1389,"x_min":0,"x_max":1215,"o":"m 347 174 l 868 174 l 868 1389 l 347 1389 l 347 174 m 1042 0 l 174 0 l 174 174 l 0 174 l 0 1389 l 174 1389 l 174 1563 l 1042 1563 l 1042 1389 l 1215 1389 l 1215 174 l 1042 174 l 1042 0 z "},"P":{"ha":1389,"x_min":0,"x_max":1215,"o":"m 1042 868 l 1042 694 l 347 694 l 347 0 l 0 0 l 0 1563 l 1042 1563 l 1042 1389 l 1215 1389 l 1215 868 l 1042 868 m 861 1389 l 347 1389 l 347 868 l 861 868 l 861 1389 z "},"Q":{"ha":1389,"x_min":0,"x_max":1217,"o":"m 357 181 l 868 181 l 868 1382 l 357 1382 l 357 181 m 868 0 l 174 0 l 174 174 l 0 174 l 0 1389 l 174 1389 l 174 1563 l 1043 1563 l 1043 1389 l 1217 1389 l 1217 174 l 1043 174 l 1043 0 l 1217 0 l 1217 -174 l 868 -174 l 868 0 z "},"R":{"ha":1389,"x_min":0,"x_max":1215,"o":"m 861 1389 l 347 1389 l 347 868 l 861 868 l 861 1389 m 868 0 l 868 174 l 694 174 l 694 347 l 521 347 l 521 521 l 347 521 l 347 694 l 347 694 l 347 0 l 0 0 l 0 1563 l 1042 1563 l 1042 1389 l 1215 1389 l 1215 868 l 1042 868 l 1042 694 l 694 694 l 694 521 l 868 521 l 868 347 l 1042 347 l 1042 174 l 1215 174 l 1215 0 l 868 0 z "},"S":{"ha":1389,"x_min":0,"x_max":1215,"o":"m 1215 1215 l 868 1215 l 868 1389 l 347 1389 l 347 868 l 1042 868 l 1042 694 l 1215 694 l 1215 174 l 1042 174 l 1042 0 l 174 0 l 174 174 l 0 174 l 0 347 l 347 347 l 347 174 l 868 174 l 868 694 l 174 694 l 174 868 l 0 868 l 0 1389 l 174 1389 l 174 1563 l 1042 1563 l 1042 1389 l 1215 1389 l 1215 1215 z "},"T":{"ha":1215,"x_min":0,"x_max":1042,"o":"m 1042 1563 l 1042 1389 l 694 1389 l 694 0 l 347 0 l 347 1389 l 0 1389 l 0 1563 l 1042 1563 z "},"U":{"ha":1389,"x_min":0,"x_max":1215,"o":"m 868 1563 l 1215 1563 l 1215 174 l 1042 174 l 1042 0 l 174 0 l 174 174 l 0 174 l 0 1563 l 347 1563 l 347 174 l 868 174 l 868 1563 z "},"V":{"ha":1389,"x_min":0,"x_max":1215,"o":"m 694 347 l 694 694 l 868 694 l 868 1563 l 1215 1563 l 1215 694 l 1042 694 l 1042 347 l 868 347 l 868 0 l 347 0 l 347 347 l 174 347 l 174 694 l 0 694 l 0 1563 l 347 1563 l 347 694 l 521 694 l 521 347 l 694 347 z "},"W":{"ha":1910,"x_min":0,"x_max":1736,"o":"m 1389 1563 l 1736 1563 l 1736 174 l 1563 174 l 1563 0 l 174 0 l 174 174 l 0 174 l 0 1563 l 347 1563 l 347 174 l 694 174 l 694 1563 l 1042 1563 l 1042 174 l 1389 174 l 1389 1563 z "},"X":{"ha":1389,"x_min":0,"x_max":1215,"o":"m 347 347 l 347 0 l 0 0 l 0 347 l 174 347 l 174 694 l 347 694 l 347 868 l 174 868 l 174 1215 l 0 1215 l 0 1563 l 347 1563 l 347 1215 l 521 1215 l 521 1042 l 694 1042 l 694 1215 l 868 1215 l 868 1563 l 1215 1563 l 1215 1215 l 1042 1215 l 1042 868 l 868 868 l 868 694 l 1042 694 l 1042 347 l 1215 347 l 1215 0 l 868 0 l 868 347 l 694 347 l 694 521 l 521 521 l 521 347 l 347 347 z "},"Y":{"ha":1563,"x_min":0,"x_max":1389,"o":"m 1389 1563 l 1389 1215 l 1215 1215 l 1215 868 l 1042 868 l 1042 694 l 868 694 l 868 0 l 521 0 l 521 694 l 347 694 l 347 868 l 174 868 l 174 1215 l 0 1215 l 0 1563 l 347 1563 l 347 1215 l 521 1215 l 521 868 l 868 868 l 868 1215 l 1042 1215 l 1042 1563 l 1389 1563 z "},"Z":{"ha":1215,"x_min":0,"x_max":1042,"o":"m 694 868 l 694 694 l 521 694 l 521 521 l 347 521 l 347 174 l 1042 174 l 1042 0 l 0 0 l 0 521 l 174 521 l 174 694 l 347 694 l 347 868 l 521 868 l 521 1042 l 694 1042 l 694 1389 l 0 1389 l 0 1563 l 1042 1563 l 1042 1042 l 868 1042 l 868 868 l 694 868 z "},"[":{"ha":694,"x_min":0,"x_max":521,"o":"m 521 -174 l 0 -174 l 0 1736 l 521 1736 l 521 1563 l 347 1563 l 347 0 l 521 0 l 521 -174 z "},"\\":{"ha":1215,"x_min":0,"x_max":1042,"o":"m 0 1736 l 347 1736 l 347 1389 l 521 1389 l 521 1042 l 694 1042 l 694 694 l 868 694 l 868 347 l 1042 347 l 1042 0 l 694 0 l 694 347 l 521 347 l 521 694 l 347 694 l 347 1042 l 174 1042 l 174 1389 l 0 1389 l 0 1736 z "},"]":{"ha":694,"x_min":0,"x_max":521,"o":"m 0 -174 l 0 0 l 174 0 l 174 1563 l 0 1563 l 0 1736 l 521 1736 l 521 -174 l 0 -174 z "},"^":{"ha":1042,"x_min":0,"x_max":868,"o":"m 868 868 l 694 868 l 694 1042 l 521 1042 l 521 1215 l 347 1215 l 347 1042 l 174 1042 l 174 868 l 0 868 l 0 1215 l 174 1215 l 174 1389 l 347 1389 l 347 1563 l 521 1563 l 521 1389 l 694 1389 l 694 1215 l 868 1215 l 868 868 z "},"_":{"ha":1563,"x_min":0,"x_max":1215,"o":"m 1215 0 l 0 0 l 0 174 l 1215 174 l 1215 0 z "},"`":{"ha":694,"x_min":0,"x_max":521,"o":"m 0 1563 l 347 1563 l 347 1389 l 521 1389 l 521 1215 l 174 1215 l 174 1389 l 0 1389 l 0 1563 z "},"a":{"ha":1215,"x_min":0,"x_max":1042,"o":"m 354 868 l 354 174 l 694 174 l 694 868 l 354 868 m 174 1042 l 1042 1042 l 1042 0 l 174 0 l 174 174 l 0 174 l 0 868 l 174 868 l 174 1042 z "},"b":{"ha":1215,"x_min":0,"x_max":1042,"o":"m 868 868 l 1042 868 l 1042 174 l 868 174 l 868 0 l 0 0 l 0 1563 l 347 1563 l 347 1042 l 868 1042 l 868 868 m 347 174 l 688 174 l 688 868 l 347 868 l 347 174 z "},"c":{"ha":1215,"x_min":0,"x_max":1042,"o":"m 1042 694 l 694 694 l 694 868 l 347 868 l 347 174 l 694 174 l 694 347 l 1042 347 l 1042 174 l 868 174 l 868 0 l 174 0 l 174 174 l 0 174 l 0 868 l 174 868 l 174 1042 l 868 1042 l 868 868 l 1042 868 l 1042 694 z "},"d":{"ha":1215,"x_min":0,"x_max":1042,"o":"m 174 868 l 174 1042 l 694 1042 l 694 1563 l 1042 1563 l 1042 0 l 174 0 l 174 174 l 0 174 l 0 868 l 174 868 m 694 174 l 694 868 l 354 868 l 354 174 l 694 174 z "},"e":{"ha":1215,"x_min":0,"x_max":1042,"o":"m 694 861 l 347 861 l 347 694 l 694 694 l 694 861 m 1042 347 l 1042 174 l 868 174 l 868 0 l 174 0 l 174 174 l 0 174 l 0 868 l 174 868 l 174 1042 l 868 1042 l 868 868 l 1042 868 l 1042 521 l 347 521 l 347 174 l 694 174 l 694 347 l 1042 347 z "},"f":{"ha":868,"x_min":0,"x_max":694,"o":"m 694 1042 l 694 868 l 521 868 l 521 0 l 174 0 l 174 868 l 0 868 l 0 1042 l 174 1042 l 174 1389 l 347 1389 l 347 1563 l 694 1563 l 694 1389 l 521 1389 l 521 1042 l 694 1042 z "},"g":{"ha":1215,"x_min":0,"x_max":1042,"o":"m 354 868 l 354 174 l 694 174 l 694 868 l 354 868 m 174 1042 l 1042 1042 l 1042 -347 l 868 -347 l 868 -521 l 174 -521 l 174 -347 l 694 -347 l 694 0 l 174 0 l 174 174 l 0 174 l 0 868 l 174 868 l 174 1042 z "},"h":{"ha":1215,"x_min":0,"x_max":1046,"o":"m 347 1042 l 868 1042 l 868 868 l 1046 868 l 1046 0 l 694 0 l 694 868 l 347 868 l 347 0 l 0 0 l 0 1563 l 347 1563 l 347 1042 z "},"i":{"ha":521,"x_min":0,"x_max":347,"o":"m 0 0 l 0 1042 l 347 1042 l 347 0 l 0 0 m 0 1563 l 347 1563 l 347 1215 l 0 1215 l 0 1563 z "},"j":{"ha":694,"x_min":0,"x_max":521,"o":"m 0 -521 l 0 -347 l 174 -347 l 174 1042 l 521 1042 l 521 -347 l 347 -347 l 347 -521 l 0 -521 m 174 1563 l 521 1563 l 521 1215 l 174 1215 l 174 1563 z "},"k":{"ha":1215,"x_min":0,"x_max":1042,"o":"m 1042 1042 l 1042 868 l 868 868 l 868 694 l 694 694 l 694 521 l 868 521 l 868 347 l 1042 347 l 1042 0 l 694 0 l 694 347 l 521 347 l 521 521 l 347 521 l 347 0 l 0 0 l 0 1563 l 347 1563 l 347 694 l 521 694 l 521 868 l 694 868 l 694 1042 l 1042 1042 z "},"l":{"ha":521,"x_min":0,"x_max":347,"o":"m 0 1563 l 347 1563 l 347 0 l 0 0 l 0 1563 z "},"m":{"ha":1910,"x_min":0,"x_max":1736,"o":"m 347 0 l 0 0 l 0 1042 l 1563 1042 l 1563 868 l 1736 868 l 1736 0 l 1389 0 l 1389 868 l 1042 868 l 1042 0 l 694 0 l 694 868 l 347 868 l 347 0 z "},"n":{"ha":1215,"x_min":0,"x_max":1042,"o":"m 0 1042 l 868 1042 l 868 868 l 1042 868 l 1042 0 l 694 0 l 694 868 l 347 868 l 347 0 l 0 0 l 0 1042 z "},"o":{"ha":1215,"x_min":0,"x_max":1042,"o":"m 347 861 l 347 181 l 694 181 l 694 861 l 347 861 m 868 1042 l 868 868 l 1042 868 l 1042 174 l 868 174 l 868 0 l 174 0 l 174 174 l 0 174 l 0 868 l 174 868 l 174 1042 l 868 1042 z "},"p":{"ha":1215,"x_min":0,"x_max":1042,"o":"m 868 174 l 868 0 l 347 0 l 347 -521 l 0 -521 l 0 1042 l 868 1042 l 868 868 l 1042 868 l 1042 174 l 868 174 m 347 868 l 347 174 l 688 174 l 688 868 l 347 868 z "},"q":{"ha":1215,"x_min":0,"x_max":1042,"o":"m 174 174 l 0 174 l 0 868 l 174 868 l 174 1042 l 1042 1042 l 1042 -521 l 694 -521 l 694 0 l 174 0 l 174 174 m 694 868 l 354 868 l 354 174 l 694 174 l 694 868 z "},"r":{"ha":1042,"x_min":0,"x_max":868,"o":"m 521 1042 l 868 1042 l 868 868 l 521 868 l 521 694 l 347 694 l 347 0 l 0 0 l 0 1042 l 347 1042 l 347 868 l 521 868 l 521 1042 z "},"s":{"ha":1042,"x_min":0,"x_max":868,"o":"m 868 868 l 347 868 l 347 694 l 694 694 l 694 521 l 868 521 l 868 174 l 694 174 l 694 0 l 0 0 l 0 174 l 521 174 l 521 347 l 174 347 l 174 521 l 0 521 l 0 868 l 174 868 l 174 1042 l 868 1042 l 868 868 z "},"t":{"ha":868,"x_min":0,"x_max":694,"o":"m 694 1042 l 694 868 l 521 868 l 521 0 l 174 0 l 174 868 l 0 868 l 0 1042 l 174 1042 l 174 1563 l 521 1563 l 521 1042 l 694 1042 z "},"u":{"ha":1215,"x_min":0,"x_max":1042,"o":"m 0 1042 l 347 1042 l 347 174 l 694 174 l 694 1042 l 1042 1042 l 1042 0 l 174 0 l 174 174 l 0 174 l 0 1042 z "},"v":{"ha":1215,"x_min":0,"x_max":1042,"o":"m 694 1042 l 1042 1042 l 1042 694 l 868 694 l 868 347 l 694 347 l 694 0 l 347 0 l 347 347 l 174 347 l 174 694 l 0 694 l 0 1042 l 347 1042 l 347 521 l 694 521 l 694 1042 z "},"w":{"ha":1910,"x_min":0,"x_max":1736,"o":"m 1389 1042 l 1736 1042 l 1736 174 l 1563 174 l 1563 0 l 174 0 l 174 174 l 0 174 l 0 1042 l 347 1042 l 347 174 l 694 174 l 694 1042 l 1042 1042 l 1042 174 l 1389 174 l 1389 1042 z "},"x":{"ha":1215,"x_min":0,"x_max":1042,"o":"m 347 694 l 174 694 l 174 868 l 0 868 l 0 1042 l 347 1042 l 347 868 l 694 868 l 694 1042 l 1042 1042 l 1042 868 l 868 868 l 868 694 l 694 694 l 694 347 l 868 347 l 868 174 l 1042 174 l 1042 0 l 694 0 l 694 174 l 347 174 l 347 0 l 0 0 l 0 174 l 174 174 l 174 347 l 347 347 l 347 694 z "},"y":{"ha":1215,"x_min":0,"x_max":1042,"o":"m 694 1042 l 1042 1042 l 1042 -347 l 868 -347 l 868 -521 l 174 -521 l 174 -347 l 694 -347 l 694 0 l 174 0 l 174 174 l 0 174 l 0 1042 l 347 1042 l 347 174 l 694 174 l 694 1042 z "},"z":{"ha":1215,"x_min":0,"x_max":1042,"o":"m 868 868 l 868 694 l 694 694 l 694 521 l 521 521 l 521 347 l 347 347 l 347 174 l 1042 174 l 1042 0 l 0 0 l 0 347 l 174 347 l 174 521 l 347 521 l 347 694 l 521 694 l 521 868 l 0 868 l 0 1042 l 1042 1042 l 1042 868 l 868 868 z "},"{":{"ha":868,"x_min":0,"x_max":694,"o":"m 521 0 l 694 0 l 694 -174 l 347 -174 l 347 0 l 174 0 l 174 694 l 0 694 l 0 868 l 174 868 l 174 1563 l 347 1563 l 347 1736 l 694 1736 l 694 1563 l 521 1563 l 521 868 l 347 868 l 347 694 l 521 694 l 521 0 z "},"|":{"ha":868,"x_min":174,"x_max":521,"o":"m 521 -174 l 174 -174 l 174 1736 l 521 1736 l 521 -174 z "},"}":{"ha":868,"x_min":0,"x_max":694,"o":"m 174 0 l 174 694 l 347 694 l 347 868 l 174 868 l 174 1563 l 0 1563 l 0 1736 l 347 1736 l 347 1563 l 521 1563 l 521 868 l 694 868 l 694 694 l 521 694 l 521 0 l 347 0 l 347 -174 l 0 -174 l 0 0 l 174 0 z "},"~":{"ha":1215,"x_min":0,"x_max":1042,"o":"m 1042 1215 l 868 1215 l 868 1042 l 521 1042 l 521 1215 l 174 1215 l 174 1042 l 0 1042 l 0 1389 l 174 1389 l 174 1563 l 521 1563 l 521 1389 l 868 1389 l 868 1563 l 1042 1563 l 1042 1215 z "},"Ä":{"ha":1389,"x_min":0,"x_max":1215,"o":"m 174 1389 l 174 1563 l 1042 1563 l 1042 1389 l 1215 1389 l 1215 0 l 868 0 l 868 694 l 347 694 l 347 0 l 0 0 l 0 1389 l 174 1389 m 868 1389 l 347 1389 l 347 868 l 868 868 l 868 1389 m 172 2083 l 521 2083 l 521 1736 l 172 1736 l 172 2083 m 693 2083 l 1042 2083 l 1042 1736 l 693 1736 l 693 2083 z "},"Å":{"ha":1389,"x_min":0,"x_max":1215,"o":"m 868 1389 l 347 1389 l 347 868 l 868 868 l 868 1389 m 1042 1736 l 868 1736 l 868 1563 l 1042 1563 l 1042 1389 l 1215 1389 l 1215 0 l 868 0 l 868 694 l 347 694 l 347 0 l 0 0 l 0 1389 l 174 1389 l 174 1563 l 347 1563 l 347 1736 l 174 1736 l 174 2083 l 347 2083 l 347 2257 l 868 2257 l 868 2083 l 1042 2083 l 1042 1736 m 694 2083 l 521 2083 l 521 1736 l 694 1736 l 694 2083 z "},"Ç":{"ha":1389,"x_min":0,"x_max":1215,"o":"m 347 -347 l 347 -174 l 521 -174 l 521 0 l 174 0 l 174 174 l 0 174 l 0 1389 l 174 1389 l 174 1563 l 1042 1563 l 1042 1389 l 1215 1389 l 1215 1215 l 868 1215 l 868 1389 l 347 1389 l 347 174 l 868 174 l 868 347 l 1215 347 l 1215 174 l 1042 174 l 1042 0 l 868 0 l 868 -174 l 694 -174 l 694 -347 l 347 -347 z "},"É":{"ha":1389,"x_min":0,"x_max":1215,"o":"m 1215 1389 l 347 1389 l 347 868 l 1042 868 l 1042 694 l 347 694 l 347 174 l 1215 174 l 1215 0 l 0 0 l 0 1563 l 1215 1563 l 1215 1389 m 347 1736 l 347 1910 l 521 1910 l 521 2083 l 868 2083 l 868 1910 l 694 1910 l 694 1736 l 347 1736 z "},"Ñ":{"ha":1389,"x_min":0,"x_max":1215,"o":"m 1215 1563 l 1215 0 l 868 0 l 868 347 l 694 347 l 694 521 l 521 521 l 521 694 l 347 694 l 347 0 l 0 0 l 0 1563 l 347 1563 l 347 1215 l 521 1215 l 521 1042 l 694 1042 l 694 868 l 868 868 l 868 1563 l 1215 1563 m 694 1910 l 868 1910 l 868 2083 l 1215 2083 l 1215 1910 l 1042 1910 l 1042 1736 l 694 1736 l 694 1910 l 521 1910 l 521 1736 l 174 1736 l 174 1910 l 347 1910 l 347 2083 l 694 2083 l 694 1910 z "},"Ö":{"ha":1389,"x_min":0,"x_max":1215,"o":"m 347 174 l 868 174 l 868 1389 l 347 1389 l 347 174 m 1042 0 l 174 0 l 174 174 l 0 174 l 0 1389 l 174 1389 l 174 1563 l 1042 1563 l 1042 1389 l 1215 1389 l 1215 174 l 1042 174 l 1042 0 m 172 2083 l 521 2083 l 521 1736 l 172 1736 l 172 2083 m 693 2083 l 1042 2083 l 1042 1736 l 693 1736 l 693 2083 z "},"Ü":{"ha":1389,"x_min":0,"x_max":1215,"o":"m 172 2083 l 521 2083 l 521 1736 l 172 1736 l 172 2083 m 693 2083 l 1042 2083 l 1042 1736 l 693 1736 l 693 2083 m 868 1563 l 1215 1563 l 1215 174 l 1042 174 l 1042 0 l 174 0 l 174 174 l 0 174 l 0 1563 l 347 1563 l 347 174 l 868 174 l 868 1563 z "},"á":{"ha":1215,"x_min":0,"x_max":1042,"o":"m 354 868 l 354 174 l 694 174 l 694 868 l 354 868 m 174 1042 l 1042 1042 l 1042 0 l 174 0 l 174 174 l 0 174 l 0 868 l 174 868 l 174 1042 m 347 1215 l 347 1389 l 521 1389 l 521 1563 l 868 1563 l 868 1389 l 694 1389 l 694 1215 l 347 1215 z "},"à":{"ha":1215,"x_min":0,"x_max":1042,"o":"m 694 1215 l 347 1215 l 347 1389 l 174 1389 l 174 1563 l 521 1563 l 521 1389 l 694 1389 l 694 1215 m 354 868 l 354 174 l 694 174 l 694 868 l 354 868 m 174 1042 l 1042 1042 l 1042 0 l 174 0 l 174 174 l 0 174 l 0 868 l 174 868 l 174 1042 z "},"â":{"ha":1215,"x_min":0,"x_max":1042,"o":"m 354 868 l 354 174 l 694 174 l 694 868 l 354 868 m 174 1042 l 1042 1042 l 1042 0 l 174 0 l 174 174 l 0 174 l 0 868 l 174 868 l 174 1042 m 1042 1215 l 694 1215 l 694 1389 l 521 1389 l 521 1215 l 174 1215 l 174 1389 l 347 1389 l 347 1563 l 868 1563 l 868 1389 l 1042 1389 l 1042 1215 z "},"ä":{"ha":1215,"x_min":0,"x_max":1042,"o":"m 354 868 l 354 174 l 694 174 l 694 868 l 354 868 m 174 1042 l 1042 1042 l 1042 0 l 174 0 l 174 174 l 0 174 l 0 868 l 174 868 l 174 1042 m 0 1563 l 349 1563 l 349 1215 l 0 1215 l 0 1563 m 693 1563 l 1042 1563 l 1042 1215 l 693 1215 l 693 1563 z "},"ã":{"ha":1215,"x_min":0,"x_max":1042,"o":"m 354 868 l 354 174 l 694 174 l 694 868 l 354 868 m 174 1042 l 1042 1042 l 1042 0 l 174 0 l 174 174 l 0 174 l 0 868 l 174 868 l 174 1042 m 521 1389 l 694 1389 l 694 1563 l 1042 1563 l 1042 1389 l 868 1389 l 868 1215 l 521 1215 l 521 1389 l 347 1389 l 347 1215 l 0 1215 l 0 1389 l 174 1389 l 174 1563 l 521 1563 l 521 1389 z "},"å":{"ha":1215,"x_min":0,"x_max":1042,"o":"m 354 868 l 354 174 l 694 174 l 694 868 l 354 868 m 1042 1215 l 868 1215 l 868 1042 l 1042 1042 l 1042 0 l 174 0 l 174 174 l 0 174 l 0 868 l 174 868 l 174 1042 l 347 1042 l 347 1215 l 174 1215 l 174 1563 l 347 1563 l 347 1736 l 868 1736 l 868 1563 l 1042 1563 l 1042 1215 m 694 1563 l 521 1563 l 521 1215 l 694 1215 l 694 1563 z "},"ç":{"ha":1215,"x_min":0,"x_max":1042,"o":"m 174 -347 l 174 -174 l 347 -174 l 347 0 l 174 0 l 174 174 l 0 174 l 0 868 l 174 868 l 174 1042 l 868 1042 l 868 868 l 1042 868 l 1042 694 l 694 694 l 694 868 l 347 868 l 347 174 l 694 174 l 694 347 l 1042 347 l 1042 174 l 868 174 l 868 0 l 694 0 l 694 -174 l 521 -174 l 521 -347 l 174 -347 z "},"é":{"ha":1215,"x_min":0,"x_max":1042,"o":"m 694 861 l 347 861 l 347 694 l 694 694 l 694 861 m 1042 347 l 1042 174 l 868 174 l 868 0 l 174 0 l 174 174 l 0 174 l 0 868 l 174 868 l 174 1042 l 868 1042 l 868 868 l 1042 868 l 1042 521 l 347 521 l 347 174 l 694 174 l 694 347 l 1042 347 m 347 1215 l 347 1389 l 521 1389 l 521 1563 l 868 1563 l 868 1389 l 694 1389 l 694 1215 l 347 1215 z "},"è":{"ha":1215,"x_min":0,"x_max":1042,"o":"m 694 861 l 347 861 l 347 694 l 694 694 l 694 861 m 1042 347 l 1042 174 l 868 174 l 868 0 l 174 0 l 174 174 l 0 174 l 0 868 l 174 868 l 174 1042 l 868 1042 l 868 868 l 1042 868 l 1042 521 l 347 521 l 347 174 l 694 174 l 694 347 l 1042 347 m 694 1215 l 347 1215 l 347 1389 l 174 1389 l 174 1563 l 521 1563 l 521 1389 l 694 1389 l 694 1215 z "},"ê":{"ha":1215,"x_min":0,"x_max":1042,"o":"m 694 861 l 347 861 l 347 694 l 694 694 l 694 861 m 1042 347 l 1042 174 l 868 174 l 868 0 l 174 0 l 174 174 l 0 174 l 0 868 l 174 868 l 174 1042 l 868 1042 l 868 868 l 1042 868 l 1042 521 l 347 521 l 347 174 l 694 174 l 694 347 l 1042 347 m 1042 1215 l 694 1215 l 694 1389 l 347 1389 l 347 1215 l 0 1215 l 0 1389 l 174 1389 l 174 1563 l 868 1563 l 868 1389 l 1042 1389 l 1042 1215 z "},"ë":{"ha":1215,"x_min":0,"x_max":1042,"o":"m 694 861 l 347 861 l 347 694 l 694 694 l 694 861 m 1042 347 l 1042 174 l 868 174 l 868 0 l 174 0 l 174 174 l 0 174 l 0 868 l 174 868 l 174 1042 l 868 1042 l 868 868 l 1042 868 l 1042 521 l 347 521 l 347 174 l 694 174 l 694 347 l 1042 347 m 0 1563 l 349 1563 l 349 1215 l 0 1215 l 0 1563 m 693 1563 l 1042 1563 l 1042 1215 l 693 1215 l 693 1563 z "},"í":{"ha":521,"x_min":0,"x_max":521,"o":"m 0 0 l 0 1042 l 347 1042 l 347 0 l 0 0 m 174 1563 l 521 1563 l 521 1389 l 347 1389 l 347 1215 l 0 1215 l 0 1389 l 174 1389 l 174 1563 z "},"ì":{"ha":521,"x_min":-174,"x_max":347,"o":"m 347 0 l 0 0 l 0 1042 l 347 1042 l 347 0 m 174 1563 l 174 1389 l 347 1389 l 347 1215 l 0 1215 l 0 1389 l -174 1389 l -174 1563 l 174 1563 z "},"î":{"ha":521,"x_min":-347,"x_max":694,"o":"m 0 0 l 0 1042 l 347 1042 l 347 0 l 0 0 m 694 1215 l 347 1215 l 347 1389 l 0 1389 l 0 1215 l -347 1215 l -347 1389 l -174 1389 l -174 1563 l 521 1563 l 521 1389 l 694 1389 l 694 1215 z "},"ï":{"ha":521,"x_min":-349,"x_max":697,"o":"m 0 0 l 0 1042 l 347 1042 l 347 0 l 0 0 m -349 1563 l 0 1563 l 0 1215 l -349 1215 l -349 1563 m 349 1563 l 697 1563 l 697 1215 l 349 1215 l 349 1563 z "},"ñ":{"ha":1215,"x_min":0,"x_max":1042,"o":"m 0 1042 l 868 1042 l 868 868 l 1042 868 l 1042 0 l 694 0 l 694 868 l 347 868 l 347 0 l 0 0 l 0 1042 m 521 1389 l 694 1389 l 694 1563 l 1042 1563 l 1042 1389 l 868 1389 l 868 1215 l 521 1215 l 521 1389 l 347 1389 l 347 1215 l 0 1215 l 0 1389 l 174 1389 l 174 1563 l 521 1563 l 521 1389 z "},"ó":{"ha":1215,"x_min":0,"x_max":1042,"o":"m 347 861 l 347 181 l 694 181 l 694 861 l 347 861 m 868 1042 l 868 868 l 1042 868 l 1042 174 l 868 174 l 868 0 l 174 0 l 174 174 l 0 174 l 0 868 l 174 868 l 174 1042 l 868 1042 m 347 1215 l 347 1389 l 521 1389 l 521 1563 l 868 1563 l 868 1389 l 694 1389 l 694 1215 l 347 1215 z "},"ò":{"ha":1215,"x_min":0,"x_max":1042,"o":"m 347 861 l 347 181 l 694 181 l 694 861 l 347 861 m 868 1042 l 868 868 l 1042 868 l 1042 174 l 868 174 l 868 0 l 174 0 l 174 174 l 0 174 l 0 868 l 174 868 l 174 1042 l 868 1042 m 694 1215 l 347 1215 l 347 1389 l 174 1389 l 174 1563 l 521 1563 l 521 1389 l 694 1389 l 694 1215 z "},"ô":{"ha":1215,"x_min":0,"x_max":1042,"o":"m 347 861 l 347 181 l 694 181 l 694 861 l 347 861 m 868 1042 l 868 868 l 1042 868 l 1042 174 l 868 174 l 868 0 l 174 0 l 174 174 l 0 174 l 0 868 l 174 868 l 174 1042 l 868 1042 m 1042 1215 l 694 1215 l 694 1389 l 347 1389 l 347 1215 l 0 1215 l 0 1389 l 174 1389 l 174 1563 l 868 1563 l 868 1389 l 1042 1389 l 1042 1215 z "},"ö":{"ha":1215,"x_min":0,"x_max":1042,"o":"m 347 861 l 347 181 l 694 181 l 694 861 l 347 861 m 868 1042 l 868 868 l 1042 868 l 1042 174 l 868 174 l 868 0 l 174 0 l 174 174 l 0 174 l 0 868 l 174 868 l 174 1042 l 868 1042 m 0 1563 l 349 1563 l 349 1215 l 0 1215 l 0 1563 m 693 1563 l 1042 1563 l 1042 1215 l 693 1215 l 693 1563 z "},"õ":{"ha":1215,"x_min":0,"x_max":1042,"o":"m 347 861 l 347 181 l 694 181 l 694 861 l 347 861 m 868 1042 l 868 868 l 1042 868 l 1042 174 l 868 174 l 868 0 l 174 0 l 174 174 l 0 174 l 0 868 l 174 868 l 174 1042 l 868 1042 m 521 1389 l 694 1389 l 694 1563 l 1042 1563 l 1042 1389 l 868 1389 l 868 1215 l 521 1215 l 521 1389 l 347 1389 l 347 1215 l 0 1215 l 0 1389 l 174 1389 l 174 1563 l 521 1563 l 521 1389 z "},"ú":{"ha":1215,"x_min":0,"x_max":1042,"o":"m 0 1042 l 347 1042 l 347 174 l 694 174 l 694 1042 l 1042 1042 l 1042 0 l 174 0 l 174 174 l 0 174 l 0 1042 m 347 1215 l 347 1389 l 521 1389 l 521 1563 l 868 1563 l 868 1389 l 694 1389 l 694 1215 l 347 1215 z "},"ù":{"ha":1215,"x_min":0,"x_max":1042,"o":"m 0 1042 l 347 1042 l 347 174 l 694 174 l 694 1042 l 1042 1042 l 1042 0 l 174 0 l 174 174 l 0 174 l 0 1042 m 694 1215 l 347 1215 l 347 1389 l 174 1389 l 174 1563 l 521 1563 l 521 1389 l 694 1389 l 694 1215 z "},"û":{"ha":1215,"x_min":0,"x_max":1042,"o":"m 0 1042 l 347 1042 l 347 174 l 694 174 l 694 1042 l 1042 1042 l 1042 0 l 174 0 l 174 174 l 0 174 l 0 1042 m 1042 1215 l 694 1215 l 694 1389 l 347 1389 l 347 1215 l 0 1215 l 0 1389 l 174 1389 l 174 1563 l 868 1563 l 868 1389 l 1042 1389 l 1042 1215 z "},"ü":{"ha":1215,"x_min":0,"x_max":1042,"o":"m 0 1042 l 347 1042 l 347 174 l 694 174 l 694 1042 l 1042 1042 l 1042 0 l 174 0 l 174 174 l 0 174 l 0 1042 m 0 1563 l 349 1563 l 349 1215 l 0 1215 l 0 1563 m 693 1563 l 1042 1563 l 1042 1215 l 693 1215 l 693 1563 z "},"†":{"ha":868,"x_min":0,"x_max":694,"o":"m 694 1042 l 694 868 l 521 868 l 521 347 l 174 347 l 174 868 l 0 868 l 0 1042 l 174 1042 l 174 1389 l 521 1389 l 521 1042 l 694 1042 z "},"°":{"ha":1042,"x_min":0,"x_max":868,"o":"m 868 1042 l 694 1042 l 694 868 l 174 868 l 174 1042 l 0 1042 l 0 1389 l 174 1389 l 174 1563 l 694 1563 l 694 1389 l 868 1389 l 868 1042 m 521 1389 l 347 1389 l 347 1042 l 521 1042 l 521 1389 z "},"¢":{"ha":1389,"x_min":0,"x_max":1215,"o":"m 354 694 l 354 174 l 521 174 l 521 694 l 354 694 m 1215 521 l 868 521 l 868 694 l 694 694 l 694 174 l 868 174 l 868 347 l 1215 347 l 1215 174 l 1042 174 l 1042 0 l 694 0 l 694 -174 l 521 -174 l 521 0 l 174 0 l 174 174 l 0 174 l 0 694 l 174 694 l 174 868 l 521 868 l 521 1042 l 694 1042 l 694 868 l 1042 868 l 1042 694 l 1215 694 l 1215 521 z "},"£":{"ha":1215,"x_min":0,"x_max":1042,"o":"m 694 868 l 694 694 l 347 694 l 347 174 l 694 174 l 694 347 l 1042 347 l 1042 174 l 868 174 l 868 0 l 0 0 l 0 1389 l 174 1389 l 174 1563 l 694 1563 l 694 1389 l 868 1389 l 868 1215 l 521 1215 l 521 1389 l 347 1389 l 347 868 l 694 868 z "},"§":{"ha":1215,"x_min":0,"x_max":1042,"o":"m 347 1035 l 347 701 l 521 701 l 521 528 l 694 528 l 694 861 l 521 861 l 521 1035 l 347 1035 m 354 347 l 354 174 l 521 174 l 521 347 l 354 347 m 688 1215 l 688 1389 l 521 1389 l 521 1215 l 688 1215 m 868 1389 l 1042 1389 l 1042 1215 l 694 1215 l 694 1042 l 868 1042 l 868 868 l 1042 868 l 1042 521 l 868 521 l 868 174 l 694 174 l 694 0 l 174 0 l 174 174 l 0 174 l 0 347 l 347 347 l 347 521 l 174 521 l 174 694 l 0 694 l 0 1042 l 174 1042 l 174 1389 l 347 1389 l 347 1563 l 868 1563 l 868 1389 z "},"•":{"ha":868,"x_min":0,"x_max":694,"o":"m 521 868 l 694 868 l 694 694 l 521 694 l 521 521 l 174 521 l 174 694 l 0 694 l 0 868 l 174 868 l 174 1042 l 521 1042 l 521 868 z "},"¶":{"ha":1389,"x_min":0,"x_max":1215,"o":"m 868 868 l 868 1389 l 694 1389 l 694 868 l 868 868 m 181 868 l 347 868 l 347 1389 l 181 1389 l 181 868 m 0 1389 l 174 1389 l 174 1563 l 1215 1563 l 1215 0 l 868 0 l 868 694 l 694 694 l 694 0 l 347 0 l 347 694 l 174 694 l 174 868 l 0 868 l 0 1389 z "},"ß":{"ha":1389,"x_min":0,"x_max":1215,"o":"m 347 1389 l 347 -174 l 0 -174 l 0 1389 l 174 1389 l 174 1563 l 1042 1563 l 1042 1389 l 1215 1389 l 1215 868 l 1042 868 l 1042 694 l 1215 694 l 1215 174 l 1042 174 l 1042 0 l 521 0 l 521 174 l 868 174 l 868 694 l 694 694 l 694 868 l 868 868 l 868 1389 l 347 1389 z "},"®":{"ha":1563,"x_min":0,"x_max":1389,"o":"m 1042 347 l 1042 174 l 347 174 l 347 347 l 174 347 l 174 521 l 0 521 l 0 1215 l 174 1215 l 174 1389 l 347 1389 l 347 1563 l 1042 1563 l 1042 1389 l 1215 1389 l 1215 1215 l 1389 1215 l 1389 521 l 1215 521 l 1215 347 l 1042 347 m 347 521 l 347 1215 l 179 1215 l 179 521 l 347 521 m 860 694 l 521 694 l 521 521 l 354 521 l 354 347 l 1035 347 l 1035 521 l 860 521 l 860 694 m 521 1042 l 521 868 l 861 868 l 861 1042 l 521 1042 m 868 1215 l 868 1042 l 1042 1042 l 1042 868 l 868 868 l 868 694 l 1042 694 l 1042 521 l 1208 521 l 1208 1215 l 1035 1215 l 1035 1389 l 354 1389 l 354 1215 l 868 1215 z "},"©":{"ha":1563,"x_min":0,"x_max":1389,"o":"m 1215 528 l 1215 1210 l 1033 1210 l 1033 1389 l 353 1389 l 353 1208 l 174 1208 l 174 528 l 353 528 l 353 347 l 1036 347 l 1036 528 l 1215 528 m 1042 347 l 1042 174 l 347 174 l 347 347 l 174 347 l 174 521 l 0 521 l 0 1215 l 174 1215 l 174 1389 l 347 1389 l 347 1563 l 1042 1563 l 1042 1389 l 1215 1389 l 1215 1215 l 1389 1215 l 1389 521 l 1215 521 l 1215 347 l 1042 347 m 868 1042 l 521 1042 l 521 694 l 868 694 l 868 521 l 521 521 l 521 694 l 347 694 l 347 1042 l 521 1042 l 521 1215 l 868 1215 l 868 1042 z "},"™":{"ha":1736,"x_min":0,"x_max":1563,"o":"m 1389 1563 l 1563 1563 l 1563 868 l 1389 868 l 1389 1215 l 1215 1215 l 1215 1042 l 1042 1042 l 1042 1215 l 868 1215 l 868 868 l 694 868 l 694 1563 l 868 1563 l 868 1389 l 1042 1389 l 1042 1215 l 1215 1215 l 1215 1389 l 1389 1389 l 1389 1563 m 0 1563 l 521 1563 l 521 1389 l 347 1389 l 347 868 l 174 868 l 174 1389 l 0 1389 l 0 1563 z "},"´":{"ha":694,"x_min":0,"x_max":521,"o":"m 521 1563 l 521 1389 l 347 1389 l 347 1215 l 0 1215 l 0 1389 l 174 1389 l 174 1563 l 521 1563 z "},"¨":{"ha":1215,"x_min":0,"x_max":1042,"o":"m 0 1563 l 349 1563 l 349 1215 l 0 1215 l 0 1563 m 693 1563 l 1042 1563 l 1042 1215 l 693 1215 l 693 1563 z "},"Æ":{"ha":1910,"x_min":0,"x_max":1736,"o":"m 694 868 l 694 1382 l 347 1382 l 347 868 l 694 868 m 1736 1389 l 1042 1389 l 1042 868 l 1563 868 l 1563 694 l 1042 694 l 1042 174 l 1736 174 l 1736 0 l 694 0 l 694 694 l 347 694 l 347 0 l 0 0 l 0 1389 l 174 1389 l 174 1563 l 1736 1563 l 1736 1389 z "},"Ø":{"ha":1389,"x_min":0,"x_max":1215,"o":"m 1042 0 l 174 0 l 174 174 l 0 174 l 0 1389 l 174 1389 l 174 1563 l 1042 1563 l 1042 1389 l 1215 1389 l 1215 174 l 1042 174 l 1042 0 m 868 881 q 849 854 868 854 q 772 861 824 854 q 694 868 721 868 l 694 694 l 528 694 l 528 521 l 347 521 l 347 181 l 868 181 l 868 881 m 514 1042 l 688 1042 l 688 1215 l 868 1215 l 868 1382 l 347 1382 l 347 868 l 514 868 l 514 1042 z "},"±":{"ha":1215,"x_min":0,"x_max":1042,"o":"m 1042 0 l 0 0 l 0 174 l 347 174 l 347 521 l 0 521 l 0 694 l 347 694 l 347 1042 l 694 1042 l 694 694 l 1042 694 l 1042 521 l 694 521 l 694 174 l 1042 174 l 1042 0 z "},"¥":{"ha":1563,"x_min":0,"x_max":1389,"o":"m 1215 347 l 868 347 l 868 0 l 521 0 l 521 347 l 174 347 l 174 521 l 521 521 l 521 694 l 174 694 l 174 868 l 347 868 l 347 1042 l 174 1042 l 174 1215 l 0 1215 l 0 1563 l 347 1563 l 347 1215 l 521 1215 l 521 1042 l 868 1042 l 868 1215 l 1042 1215 l 1042 1563 l 1389 1563 l 1389 1215 l 1215 1215 l 1215 1042 l 1042 1042 l 1042 868 l 1215 868 l 1215 694 l 868 694 l 868 521 l 1215 521 l 1215 347 z "},"µ":{"ha":1389,"x_min":0,"x_max":1215,"o":"m 347 -521 l 0 -521 l 0 1042 l 347 1042 l 347 174 l 694 174 l 694 1042 l 1042 1042 l 1042 174 l 1215 174 l 1215 0 l 868 0 l 868 174 l 694 174 l 694 0 l 347 0 l 347 -521 z "},"ª":{"ha":1215,"x_min":0,"x_max":1042,"o":"m 0 0 l 0 174 l 1042 174 l 1042 0 l 0 0 m 347 1215 l 347 521 l 694 521 l 694 1215 l 347 1215 m 174 1389 l 1042 1389 l 1042 347 l 174 347 l 174 521 l 0 521 l 0 1215 l 174 1215 l 174 1389 z "},"º":{"ha":1215,"x_min":0,"x_max":1042,"o":"m 0 0 l 0 174 l 1042 174 l 1042 0 l 0 0 m 347 1215 l 347 521 l 694 521 l 694 1215 l 347 1215 m 868 1389 l 868 1215 l 1042 1215 l 1042 521 l 868 521 l 868 347 l 174 347 l 174 521 l 0 521 l 0 1215 l 174 1215 l 174 1389 l 868 1389 z "},"æ":{"ha":1910,"x_min":0,"x_max":1736,"o":"m 694 868 l 174 868 l 174 1042 l 1563 1042 l 1563 868 l 1736 868 l 1736 521 l 1042 521 l 1042 174 l 1389 174 l 1389 347 l 1736 347 l 1736 174 l 1563 174 l 1563 0 l 174 0 l 174 174 l 0 174 l 0 521 l 174 521 l 174 694 l 694 694 l 694 868 m 347 514 l 347 181 l 694 181 l 694 514 l 347 514 m 1389 861 l 1042 861 l 1042 694 l 1389 694 l 1389 861 z "},"ø":{"ha":1215,"x_min":0,"x_max":1042,"o":"m 868 1042 l 868 868 l 1042 868 l 1042 174 l 868 174 l 868 0 l 174 0 l 174 174 l 0 174 l 0 868 l 174 868 l 174 1042 l 868 1042 m 694 521 l 528 521 l 528 347 l 347 347 l 347 181 l 694 181 l 694 521 m 521 521 l 521 694 l 694 694 l 694 861 l 347 861 l 347 521 l 521 521 z "},"¿":{"ha":1215,"x_min":0,"x_max":1042,"o":"m 694 1563 l 694 1389 l 347 1389 l 347 1563 l 694 1563 m 521 868 l 521 694 l 347 694 l 347 174 l 694 174 l 694 347 l 1042 347 l 1042 174 l 868 174 l 868 0 l 174 0 l 174 174 l 0 174 l 0 694 l 174 694 l 174 868 l 347 868 l 347 1215 l 694 1215 l 694 868 l 521 868 z "},"¡":{"ha":868,"x_min":174,"x_max":521,"o":"m 521 1215 l 521 0 l 174 0 l 174 1215 l 521 1215 m 521 1563 l 521 1389 l 174 1389 l 174 1563 l 521 1563 z "},"¬":{"ha":1389,"x_min":0,"x_max":1042,"o":"m 694 347 l 694 694 l 0 694 l 0 868 l 1042 868 l 1042 347 l 694 347 z "},"ƒ":{"ha":1215,"x_min":174,"x_max":868,"o":"m 521 1563 l 868 1563 l 868 1389 l 694 1389 l 694 868 l 868 868 l 868 694 l 694 694 l 694 0 l 521 0 l 521 -174 l 174 -174 l 174 0 l 347 0 l 347 694 l 174 694 l 174 868 l 347 868 l 347 1389 l 521 1389 l 521 1563 z "},"«":{"ha":1389,"x_min":0,"x_max":1215,"o":"m 868 868 l 868 1042 l 1215 1042 l 1215 868 l 1042 868 l 1042 694 l 1215 694 l 1215 521 l 868 521 l 868 694 l 694 694 l 694 868 l 868 868 m 174 868 l 174 1042 l 521 1042 l 521 868 l 347 868 l 347 694 l 521 694 l 521 521 l 174 521 l 174 694 l 0 694 l 0 868 l 174 868 z "},"»":{"ha":1389,"x_min":0,"x_max":1215,"o":"m 347 868 l 521 868 l 521 694 l 347 694 l 347 521 l 0 521 l 0 694 l 174 694 l 174 868 l 0 868 l 0 1042 l 347 1042 l 347 868 m 1042 868 l 1215 868 l 1215 694 l 1042 694 l 1042 521 l 694 521 l 694 694 l 868 694 l 868 868 l 694 868 l 694 1042 l 1042 1042 l 1042 868 z "},"…":{"ha":1563,"x_min":0,"x_max":1389,"o":"m 0 0 l 0 347 l 347 347 l 347 0 l 0 0 m 521 0 l 521 347 l 868 347 l 868 0 l 521 0 m 1042 0 l 1042 347 l 1389 347 l 1389 0 l 1042 0 z "}," ":{"ha":694,"x_min":0,"x_max":0,"o":""},"À":{"ha":1389,"x_min":0,"x_max":1215,"o":"m 174 1389 l 174 1563 l 1042 1563 l 1042 1389 l 1215 1389 l 1215 0 l 868 0 l 868 694 l 347 694 l 347 0 l 0 0 l 0 1389 l 174 1389 m 868 1389 l 347 1389 l 347 868 l 868 868 l 868 1389 m 868 1736 l 521 1736 l 521 1910 l 347 1910 l 347 2083 l 694 2083 l 694 1910 l 868 1910 l 868 1736 z "},"Ã":{"ha":1389,"x_min":0,"x_max":1215,"o":"m 174 1389 l 174 1563 l 1042 1563 l 1042 1389 l 1215 1389 l 1215 0 l 868 0 l 868 694 l 347 694 l 347 0 l 0 0 l 0 1389 l 174 1389 m 868 1389 l 347 1389 l 347 868 l 868 868 l 868 1389 m 694 1910 l 868 1910 l 868 2083 l 1215 2083 l 1215 1910 l 1042 1910 l 1042 1736 l 694 1736 l 694 1910 l 521 1910 l 521 1736 l 174 1736 l 174 1910 l 347 1910 l 347 2083 l 694 2083 l 694 1910 z "},"Õ":{"ha":1389,"x_min":0,"x_max":1215,"o":"m 347 174 l 868 174 l 868 1389 l 347 1389 l 347 174 m 1042 0 l 174 0 l 174 174 l 0 174 l 0 1389 l 174 1389 l 174 1563 l 1042 1563 l 1042 1389 l 1215 1389 l 1215 174 l 1042 174 l 1042 0 m 694 1910 l 868 1910 l 868 2083 l 1215 2083 l 1215 1910 l 1042 1910 l 1042 1736 l 694 1736 l 694 1910 l 521 1910 l 521 1736 l 174 1736 l 174 1910 l 347 1910 l 347 2083 l 694 2083 l 694 1910 z "},"Œ":{"ha":1910,"x_min":0,"x_max":1736,"o":"m 694 174 l 694 1389 l 347 1389 l 347 174 l 694 174 m 1736 1389 l 1042 1389 l 1042 868 l 1563 868 l 1563 694 l 1042 694 l 1042 174 l 1736 174 l 1736 0 l 174 0 l 174 174 l 0 174 l 0 1389 l 174 1389 l 174 1563 l 1736 1563 l 1736 1389 z "},"œ":{"ha":1910,"x_min":0,"x_max":1736,"o":"m 347 861 l 694 861 l 694 181 l 347 181 l 347 861 m 1389 861 l 1389 694 l 1042 694 l 1042 861 l 1389 861 m 174 0 l 174 174 l 0 174 l 0 868 l 174 868 l 174 1042 l 1563 1042 l 1563 868 l 1736 868 l 1736 521 l 1042 521 l 1042 174 l 1389 174 l 1389 347 l 1736 347 l 1736 174 l 1563 174 l 1563 0 l 174 0 m 174 0 l 1563 0 l 174 0 z "},"–":{"ha":1042,"x_min":0,"x_max":868,"o":"m 868 521 l 0 521 l 0 868 l 868 868 l 868 521 z "},"—":{"ha":1215,"x_min":0,"x_max":1042,"o":"m 1042 521 l 0 521 l 0 868 l 1042 868 l 1042 521 z "},"“":{"ha":1215,"x_min":0,"x_max":1042,"o":"m 1042 1563 l 1042 1389 l 868 1389 l 868 1042 l 521 1042 l 521 1389 l 347 1389 l 347 1042 l 0 1042 l 0 1389 l 174 1389 l 174 1563 l 521 1563 l 521 1389 l 694 1389 l 694 1563 l 1042 1563 z "},"”":{"ha":1215,"x_min":0,"x_max":1042,"o":"m 521 1042 l 521 1215 l 347 1215 l 347 1042 l 0 1042 l 0 1215 l 174 1215 l 174 1563 l 521 1563 l 521 1215 l 694 1215 l 694 1563 l 1042 1563 l 1042 1215 l 868 1215 l 868 1042 l 521 1042 z "},"‘":{"ha":694,"x_min":0,"x_max":521,"o":"m 521 1563 l 521 1389 l 347 1389 l 347 1042 l 0 1042 l 0 1389 l 174 1389 l 174 1563 l 521 1563 z "},"’":{"ha":694,"x_min":0,"x_max":521,"o":"m 0 1042 l 0 1215 l 174 1215 l 174 1563 l 521 1563 l 521 1215 l 347 1215 l 347 1042 l 0 1042 z "},"÷":{"ha":1215,"x_min":0,"x_max":1042,"o":"m 1042 521 l 0 521 l 0 868 l 1042 868 l 1042 521 m 347 1389 l 694 1389 l 694 1042 l 347 1042 l 347 1389 m 347 347 l 694 347 l 694 0 l 347 0 l 347 347 z "},"ÿ":{"ha":1215,"x_min":0,"x_max":1042,"o":"m 694 1042 l 1042 1042 l 1042 -347 l 868 -347 l 868 -521 l 174 -521 l 174 -347 l 694 -347 l 694 0 l 174 0 l 174 174 l 0 174 l 0 1042 l 347 1042 l 347 174 l 694 174 l 694 1042 m 0 1563 l 349 1563 l 349 1215 l 0 1215 l 0 1563 m 693 1563 l 1042 1563 l 1042 1215 l 693 1215 l 693 1563 z "},"Ÿ":{"ha":1563,"x_min":0,"x_max":1389,"o":"m 1389 1563 l 1389 1215 l 1215 1215 l 1215 868 l 1042 868 l 1042 694 l 868 694 l 868 0 l 521 0 l 521 694 l 347 694 l 347 868 l 174 868 l 174 1215 l 0 1215 l 0 1563 l 347 1563 l 347 1215 l 521 1215 l 521 868 l 868 868 l 868 1215 l 1042 1215 l 1042 1563 l 1389 1563 m 172 2083 l 521 2083 l 521 1736 l 172 1736 l 172 2083 m 868 2083 l 1217 2083 l 1217 1736 l 868 1736 l 868 2083 z "},"¤":{"ha":1736,"x_min":0,"x_max":1563,"o":"m 1215 174 l 1215 347 l 1563 347 l 1563 174 l 1389 174 l 1389 0 l 521 0 l 521 174 l 347 174 l 347 521 l 0 521 l 0 694 l 347 694 l 347 868 l 0 868 l 0 1042 l 347 1042 l 347 1389 l 521 1389 l 521 1563 l 1389 1563 l 1389 1389 l 1563 1389 l 1563 1215 l 1215 1215 l 1215 1389 l 694 1389 l 694 1042 l 1042 1042 l 1042 868 l 694 868 l 694 694 l 1042 694 l 1042 521 l 694 521 l 694 174 l 1215 174 z "},"‹":{"ha":694,"x_min":0,"x_max":521,"o":"m 174 868 l 174 1042 l 521 1042 l 521 868 l 347 868 l 347 694 l 521 694 l 521 521 l 174 521 l 174 694 l 0 694 l 0 868 l 174 868 z "},"›":{"ha":694,"x_min":0,"x_max":521,"o":"m 347 868 l 521 868 l 521 694 l 347 694 l 347 521 l 0 521 l 0 694 l 174 694 l 174 868 l 0 868 l 0 1042 l 347 1042 l 347 868 z "},"‡":{"ha":868,"x_min":0,"x_max":694,"o":"m 0 1042 l 174 1042 l 174 1563 l 521 1563 l 521 1042 l 694 1042 l 694 868 l 521 868 l 521 521 l 694 521 l 694 347 l 521 347 l 521 -174 l 174 -174 l 174 347 l 0 347 l 0 521 l 174 521 l 174 868 l 0 868 l 0 1042 z "},"·":{"ha":521,"x_min":0,"x_max":347,"o":"m 0 868 l 347 868 l 347 521 l 0 521 l 0 868 z "},"‚":{"ha":694,"x_min":0,"x_max":521,"o":"m 0 -347 l 0 -174 l 174 -174 l 174 347 l 521 347 l 521 -174 l 347 -174 l 347 -347 l 0 -347 z "},"„":{"ha":1215,"x_min":0,"x_max":1042,"o":"m 521 -347 l 521 -174 l 347 -174 l 347 -347 l 0 -347 l 0 -174 l 174 -174 l 174 347 l 521 347 l 521 -174 l 694 -174 l 694 347 l 1042 347 l 1042 -174 l 868 -174 l 868 -347 l 521 -347 z "},"‰":{"ha":1563,"x_min":0,"x_max":1389,"o":"m 174 1049 l 347 1049 l 347 1382 l 174 1382 l 174 1049 m 1042 181 l 1215 181 l 1215 514 l 1042 514 l 1042 181 m 868 181 l 868 514 l 694 514 l 694 181 l 868 181 m 521 521 l 694 521 l 694 688 l 521 688 l 521 521 m 347 875 l 521 875 l 521 1042 l 347 1042 l 347 875 m 1215 0 l 1042 0 l 1042 174 l 868 174 l 868 0 l 694 0 l 694 174 l 521 174 l 521 347 l 347 347 l 347 0 l 0 0 l 0 347 l 174 347 l 174 694 l 347 694 l 347 868 l 174 868 l 174 1042 l 0 1042 l 0 1389 l 174 1389 l 174 1563 l 347 1563 l 347 1389 l 521 1389 l 521 1215 l 694 1215 l 694 1563 l 1042 1563 l 1042 1215 l 868 1215 l 868 868 l 694 868 l 694 694 l 868 694 l 868 521 l 1042 521 l 1042 694 l 1215 694 l 1215 521 l 1389 521 l 1389 174 l 1215 174 l 1215 0 z "},"Â":{"ha":1389,"x_min":0,"x_max":1215,"o":"m 174 1389 l 174 1563 l 1042 1563 l 1042 1389 l 1215 1389 l 1215 0 l 868 0 l 868 694 l 347 694 l 347 0 l 0 0 l 0 1389 l 174 1389 m 868 1389 l 347 1389 l 347 868 l 868 868 l 868 1389 m 1042 1736 l 694 1736 l 694 1910 l 521 1910 l 521 1736 l 174 1736 l 174 1910 l 347 1910 l 347 2083 l 868 2083 l 868 1910 l 1042 1910 l 1042 1736 z "},"Ê":{"ha":1389,"x_min":0,"x_max":1215,"o":"m 1215 1389 l 347 1389 l 347 868 l 1042 868 l 1042 694 l 347 694 l 347 174 l 1215 174 l 1215 0 l 0 0 l 0 1563 l 1215 1563 l 1215 1389 m 1042 1736 l 694 1736 l 694 1910 l 521 1910 l 521 1736 l 174 1736 l 174 1910 l 347 1910 l 347 2083 l 868 2083 l 868 1910 l 1042 1910 l 1042 1736 z "},"Á":{"ha":1389,"x_min":0,"x_max":1215,"o":"m 174 1389 l 174 1563 l 1042 1563 l 1042 1389 l 1215 1389 l 1215 0 l 868 0 l 868 694 l 347 694 l 347 0 l 0 0 l 0 1389 l 174 1389 m 868 1389 l 347 1389 l 347 868 l 868 868 l 868 1389 m 347 1736 l 347 1910 l 521 1910 l 521 2083 l 868 2083 l 868 1910 l 694 1910 l 694 1736 l 347 1736 z "},"Ë":{"ha":1389,"x_min":0,"x_max":1215,"o":"m 1215 1389 l 347 1389 l 347 868 l 1042 868 l 1042 694 l 347 694 l 347 174 l 1215 174 l 1215 0 l 0 0 l 0 1563 l 1215 1563 l 1215 1389 m 172 2083 l 521 2083 l 521 1736 l 172 1736 l 172 2083 m 693 2083 l 1042 2083 l 1042 1736 l 693 1736 l 693 2083 z "},"È":{"ha":1389,"x_min":0,"x_max":1215,"o":"m 1215 1389 l 347 1389 l 347 868 l 1042 868 l 1042 694 l 347 694 l 347 174 l 1215 174 l 1215 0 l 0 0 l 0 1563 l 1215 1563 l 1215 1389 m 868 1736 l 521 1736 l 521 1910 l 347 1910 l 347 2083 l 694 2083 l 694 1910 l 868 1910 l 868 1736 z "},"Í":{"ha":521,"x_min":0,"x_max":521,"o":"m 0 0 l 0 1563 l 347 1563 l 347 0 l 0 0 m 174 2083 l 521 2083 l 521 1910 l 347 1910 l 347 1736 l 0 1736 l 0 1910 l 174 1910 l 174 2083 z "},"Î":{"ha":521,"x_min":-347,"x_max":694,"o":"m 0 0 l 0 1563 l 347 1563 l 347 0 l 0 0 m 694 1736 l 347 1736 l 347 1910 l 0 1910 l 0 1736 l -347 1736 l -347 1910 l -174 1910 l -174 2083 l 521 2083 l 521 1910 l 694 1910 l 694 1736 z "},"Ï":{"ha":521,"x_min":-349,"x_max":697,"o":"m 0 0 l 0 1563 l 347 1563 l 347 0 l 0 0 m -349 2083 l 0 2083 l 0 1736 l -349 1736 l -349 2083 m 349 2083 l 697 2083 l 697 1736 l 349 1736 l 349 2083 z "},"Ì":{"ha":521,"x_min":-174,"x_max":347,"o":"m 347 0 l 0 0 l 0 1563 l 347 1563 l 347 0 m 174 2083 l 174 1910 l 347 1910 l 347 1736 l 0 1736 l 0 1910 l -174 1910 l -174 2083 l 174 2083 z "},"Ó":{"ha":1389,"x_min":0,"x_max":1215,"o":"m 347 174 l 868 174 l 868 1389 l 347 1389 l 347 174 m 1042 0 l 174 0 l 174 174 l 0 174 l 0 1389 l 174 1389 l 174 1563 l 1042 1563 l 1042 1389 l 1215 1389 l 1215 174 l 1042 174 l 1042 0 m 347 1736 l 347 1910 l 521 1910 l 521 2083 l 868 2083 l 868 1910 l 694 1910 l 694 1736 l 347 1736 z "},"Ô":{"ha":1389,"x_min":0,"x_max":1215,"o":"m 347 174 l 868 174 l 868 1389 l 347 1389 l 347 174 m 1042 0 l 174 0 l 174 174 l 0 174 l 0 1389 l 174 1389 l 174 1563 l 1042 1563 l 1042 1389 l 1215 1389 l 1215 174 l 1042 174 l 1042 0 m 1042 1736 l 694 1736 l 694 1910 l 521 1910 l 521 1736 l 174 1736 l 174 1910 l 347 1910 l 347 2083 l 868 2083 l 868 1910 l 1042 1910 l 1042 1736 z "},"Ò":{"ha":1389,"x_min":0,"x_max":1215,"o":"m 347 174 l 868 174 l 868 1389 l 347 1389 l 347 174 m 1042 0 l 174 0 l 174 174 l 0 174 l 0 1389 l 174 1389 l 174 1563 l 1042 1563 l 1042 1389 l 1215 1389 l 1215 174 l 1042 174 l 1042 0 m 868 1736 l 521 1736 l 521 1910 l 347 1910 l 347 2083 l 694 2083 l 694 1910 l 868 1910 l 868 1736 z "},"Ú":{"ha":1389,"x_min":0,"x_max":1215,"o":"m 868 1563 l 1215 1563 l 1215 174 l 1042 174 l 1042 0 l 174 0 l 174 174 l 0 174 l 0 1563 l 347 1563 l 347 174 l 868 174 l 868 1563 m 347 1736 l 347 1910 l 521 1910 l 521 2083 l 868 2083 l 868 1910 l 694 1910 l 694 1736 l 347 1736 z "},"Û":{"ha":1389,"x_min":0,"x_max":1215,"o":"m 868 1563 l 1215 1563 l 1215 174 l 1042 174 l 1042 0 l 174 0 l 174 174 l 0 174 l 0 1563 l 347 1563 l 347 174 l 868 174 l 868 1563 m 1042 1736 l 694 1736 l 694 1910 l 521 1910 l 521 1736 l 174 1736 l 174 1910 l 347 1910 l 347 2083 l 868 2083 l 868 1910 l 1042 1910 l 1042 1736 z "},"Ù":{"ha":1389,"x_min":0,"x_max":1215,"o":"m 868 1563 l 1215 1563 l 1215 174 l 1042 174 l 1042 0 l 174 0 l 174 174 l 0 174 l 0 1563 l 347 1563 l 347 174 l 868 174 l 868 1563 m 868 1736 l 521 1736 l 521 1910 l 347 1910 l 347 2083 l 694 2083 l 694 1910 l 868 1910 l 868 1736 z "},"ˆ":{"ha":1042,"x_min":0,"x_max":869,"o":"m 521 1215 l 349 1215 l 349 1042 l 0 1042 l 0 1215 l 174 1215 l 174 1389 l 696 1389 l 696 1215 l 869 1215 l 869 1042 l 521 1042 l 521 1215 z "},"˜":{"ha":1215,"x_min":0,"x_max":1042,"o":"m 521 1215 l 694 1215 l 694 1389 l 1042 1389 l 1042 1215 l 868 1215 l 868 1042 l 521 1042 l 521 1215 l 347 1215 l 347 1042 l 0 1042 l 0 1215 l 174 1215 l 174 1389 l 521 1389 l 521 1215 z "},"¯":{"ha":868,"x_min":0,"x_max":694,"o":"m 694 1215 l 0 1215 l 0 1389 l 694 1389 l 694 1215 z "},"¸":{"ha":694,"x_min":0,"x_max":521,"o":"m 347 -174 l 347 -347 l 0 -347 l 0 -174 l 347 -174 l 347 0 l 521 0 l 521 -174 l 347 -174 z "},"Š":{"ha":1389,"x_min":0,"x_max":1215,"o":"m 1215 1215 l 868 1215 l 868 1389 l 347 1389 l 347 868 l 1042 868 l 1042 694 l 1215 694 l 1215 174 l 1042 174 l 1042 0 l 174 0 l 174 174 l 0 174 l 0 347 l 347 347 l 347 174 l 868 174 l 868 694 l 174 694 l 174 868 l 0 868 l 0 1389 l 174 1389 l 174 1563 l 1042 1563 l 1042 1389 l 1215 1389 l 1215 1215 m 1042 2083 l 1042 1910 l 868 1910 l 868 1736 l 347 1736 l 347 1910 l 174 1910 l 174 2083 l 521 2083 l 521 1910 l 694 1910 l 694 2083 l 1042 2083 z "},"š":{"ha":1042,"x_min":0,"x_max":868,"o":"m 868 868 l 347 868 l 347 694 l 694 694 l 694 521 l 868 521 l 868 174 l 694 174 l 694 0 l 0 0 l 0 174 l 521 174 l 521 347 l 174 347 l 174 521 l 0 521 l 0 868 l 174 868 l 174 1042 l 868 1042 l 868 868 m 868 1563 l 868 1389 l 694 1389 l 694 1215 l 174 1215 l 174 1389 l 0 1389 l 0 1563 l 347 1563 l 347 1389 l 521 1389 l 521 1563 l 868 1563 z "},"¦":{"ha":868,"x_min":174,"x_max":521,"o":"m 174 868 l 174 1563 l 521 1563 l 521 868 l 174 868 m 174 0 l 174 694 l 521 694 l 521 0 l 174 0 z "},"Ð":{"ha":1563,"x_min":0,"x_max":1389,"o":"m 174 694 l 0 694 l 0 868 l 174 868 l 174 1563 l 1215 1563 l 1215 1389 l 1389 1389 l 1389 174 l 1215 174 l 1215 0 l 174 0 l 174 694 m 694 694 l 521 694 l 521 174 l 1035 174 l 1035 1389 l 521 1389 l 521 868 l 694 868 l 694 694 z "},"ð":{"ha":1215,"x_min":0,"x_max":1040,"o":"m 688 174 l 688 869 l 526 869 l 526 694 l 353 694 l 353 174 l 688 174 m 0 1561 l 346 1561 l 346 1388 l 518 1388 l 518 1214 l 1040 1214 l 1040 1042 l 868 1042 l 868 869 l 1040 869 l 1040 174 l 867 174 l 867 0 l 172 0 l 172 174 l 0 174 l 0 694 l 172 694 l 172 869 l 347 869 l 347 1042 l 0 1042 l 0 1214 l 174 1214 l 174 1388 l 0 1388 l 0 1561 z "},"Ý":{"ha":1563,"x_min":0,"x_max":1389,"o":"m 1389 1563 l 1389 1215 l 1215 1215 l 1215 868 l 1042 868 l 1042 694 l 868 694 l 868 0 l 521 0 l 521 694 l 347 694 l 347 868 l 174 868 l 174 1215 l 0 1215 l 0 1563 l 347 1563 l 347 1215 l 521 1215 l 521 868 l 868 868 l 868 1215 l 1042 1215 l 1042 1563 l 1389 1563 m 521 1736 l 521 1910 l 694 1910 l 694 2083 l 1042 2083 l 1042 1910 l 868 1910 l 868 1736 l 521 1736 z "},"ý":{"ha":1215,"x_min":0,"x_max":1042,"o":"m 694 1042 l 1042 1042 l 1042 -347 l 868 -347 l 868 -521 l 174 -521 l 174 -347 l 694 -347 l 694 0 l 174 0 l 174 174 l 0 174 l 0 1042 l 347 1042 l 347 174 l 694 174 l 694 1042 m 347 1215 l 347 1389 l 521 1389 l 521 1563 l 868 1563 l 868 1389 l 694 1389 l 694 1215 l 347 1215 z "},"Þ":{"ha":1215,"x_min":0,"x_max":1042,"o":"m 347 174 l 688 174 l 688 868 l 347 868 l 347 174 m 0 -521 l 0 1563 l 347 1563 l 347 1042 l 868 1042 l 868 868 l 1042 868 l 1042 174 l 868 174 l 868 0 l 347 0 l 347 -521 l 0 -521 z "},"þ":{"ha":1215,"x_min":0,"x_max":1042,"o":"m 347 174 l 688 174 l 688 521 l 347 521 l 347 174 m 0 -347 l 0 1042 l 347 1042 l 347 694 l 868 694 l 868 521 l 1042 521 l 1042 174 l 868 174 l 868 0 l 347 0 l 347 -347 l 0 -347 z "},"­":{"ha":1215,"x_min":0,"x_max":1042,"o":"m 1042 521 l 0 521 l 0 868 l 1042 868 l 1042 521 z "},"×":{"ha":1215,"x_min":0,"x_max":1042,"o":"m 347 868 l 174 868 l 174 1042 l 0 1042 l 0 1215 l 347 1215 l 347 1042 l 694 1042 l 694 1215 l 1042 1215 l 1042 1042 l 868 1042 l 868 868 l 694 868 l 694 694 l 868 694 l 868 521 l 1042 521 l 1042 347 l 694 347 l 694 521 l 347 521 l 347 347 l 0 347 l 0 521 l 174 521 l 174 694 l 347 694 l 347 868 z "},"¹":{"ha":694,"x_min":0,"x_max":521,"o":"m 0 1563 l 521 1563 l 521 694 l 174 694 l 174 1389 l 0 1389 l 0 1563 z "},"²":{"ha":868,"x_min":0,"x_max":694,"o":"m 0 1042 l 174 1042 l 174 1215 l 347 1215 l 347 1389 l 0 1389 l 0 1563 l 521 1563 l 521 1389 l 694 1389 l 694 1042 l 347 1042 l 347 868 l 694 868 l 694 694 l 0 694 l 0 1042 z "},"³":{"ha":868,"x_min":0,"x_max":694,"o":"m 521 1389 l 694 1389 l 694 1215 l 521 1215 l 521 1042 l 694 1042 l 694 868 l 521 868 l 521 694 l 0 694 l 0 868 l 347 868 l 347 1042 l 174 1042 l 174 1215 l 347 1215 l 347 1389 l 0 1389 l 0 1563 l 521 1563 l 521 1389 z "},"½":{"ha":2083,"x_min":0,"x_max":1910,"o":"m 1042 347 l 1215 347 l 1215 521 l 1389 521 l 1389 694 l 1563 694 l 1563 1042 l 1215 1042 l 1215 868 l 1042 868 l 1042 694 l 868 694 l 868 347 l 694 347 l 694 0 l 347 0 l 347 347 l 174 347 l 174 1215 l 0 1215 l 0 1389 l 174 1389 l 174 1563 l 521 1563 l 521 694 l 694 694 l 694 1042 l 868 1042 l 868 1389 l 1042 1389 l 1042 1736 l 1389 1736 l 1389 1389 l 1215 1389 l 1215 1215 l 1736 1215 l 1736 1042 l 1910 1042 l 1910 694 l 1736 694 l 1736 521 l 1563 521 l 1563 347 l 1389 347 l 1389 174 l 1910 174 l 1910 0 l 868 0 l 868 174 l 1042 174 l 1042 347 z "},"¼":{"ha":2083,"x_min":0,"x_max":1910,"o":"m 1049 694 l 1049 521 l 1389 521 l 1389 868 l 1215 868 l 1215 694 l 1049 694 m 1215 1042 l 1389 1042 l 1389 1215 l 1736 1215 l 1736 521 l 1910 521 l 1910 347 l 1736 347 l 1736 0 l 1389 0 l 1389 347 l 694 347 l 694 0 l 347 0 l 347 347 l 174 347 l 174 1215 l 0 1215 l 0 1389 l 174 1389 l 174 1563 l 521 1563 l 521 694 l 694 694 l 694 1042 l 868 1042 l 868 1389 l 1042 1389 l 1042 1736 l 1389 1736 l 1389 1389 l 1215 1389 l 1215 1042 m 1208 868 l 1208 1042 l 1042 1042 l 1042 868 l 1208 868 z "},"¾":{"ha":2431,"x_min":0,"x_max":2257,"o":"m 1396 694 l 1396 521 l 1736 521 l 1736 868 l 1563 868 l 1563 694 l 1396 694 m 1035 1042 l 868 1042 l 868 868 l 1035 868 l 1035 1042 m 1563 1042 l 1736 1042 l 1736 1215 l 2083 1215 l 2083 521 l 2257 521 l 2257 347 l 2083 347 l 2083 0 l 1736 0 l 1736 347 l 1042 347 l 1042 0 l 694 0 l 694 347 l 174 347 l 174 521 l 0 521 l 0 694 l 340 694 l 340 521 l 694 521 l 694 868 l 347 868 l 347 1042 l 694 1042 l 694 1389 l 340 1389 l 340 1215 l 0 1215 l 0 1389 l 174 1389 l 174 1563 l 861 1563 l 861 1389 l 1042 1389 l 1042 1042 l 1215 1042 l 1215 1389 l 1389 1389 l 1389 1736 l 1736 1736 l 1736 1389 l 1563 1389 l 1563 1042 m 1556 868 l 1556 1042 l 1389 1042 l 1389 868 l 1556 868 z "},"Ł":{"ha":1389,"x_min":0,"x_max":1215,"o":"m 521 1042 l 694 1042 l 694 868 l 521 868 l 521 174 l 1215 174 l 1215 0 l 174 0 l 174 521 l 0 521 l 0 694 l 174 694 l 174 1563 l 521 1563 l 521 1042 z "},"ł":{"ha":868,"x_min":0,"x_max":694,"o":"m 521 1042 l 694 1042 l 694 868 l 521 868 l 521 0 l 174 0 l 174 521 l 0 521 l 0 694 l 174 694 l 174 1563 l 521 1563 l 521 1042 z "},"Ž":{"ha":1215,"x_min":0,"x_max":1042,"o":"m 694 868 l 694 694 l 521 694 l 521 521 l 347 521 l 347 174 l 1042 174 l 1042 0 l 0 0 l 0 521 l 174 521 l 174 694 l 347 694 l 347 868 l 521 868 l 521 1042 l 694 1042 l 694 1389 l 0 1389 l 0 1563 l 1042 1563 l 1042 1042 l 868 1042 l 868 868 l 694 868 m 1042 2083 l 1042 1910 l 868 1910 l 868 1736 l 174 1736 l 174 1910 l 0 1910 l 0 2083 l 347 2083 l 347 1910 l 694 1910 l 694 2083 l 1042 2083 z "},"ž":{"ha":1215,"x_min":0,"x_max":1042,"o":"m 868 868 l 868 694 l 694 694 l 694 521 l 521 521 l 521 347 l 347 347 l 347 174 l 1042 174 l 1042 0 l 0 0 l 0 347 l 174 347 l 174 521 l 347 521 l 347 694 l 521 694 l 521 868 l 0 868 l 0 1042 l 1042 1042 l 1042 868 l 868 868 m 1042 1563 l 1042 1389 l 868 1389 l 868 1215 l 174 1215 l 174 1389 l 0 1389 l 0 1563 l 347 1563 l 347 1389 l 694 1389 l 694 1563 l 1042 1563 z "},"≠":{"ha":1215,"x_min":0,"x_max":1042,"o":"m 521 521 l 521 347 l 174 347 l 174 521 l 0 521 l 0 694 l 347 694 l 347 868 l 0 868 l 0 1042 l 521 1042 l 521 1215 l 868 1215 l 868 1042 l 1042 1042 l 1042 868 l 694 868 l 694 694 l 1042 694 l 1042 521 l 521 521 z "},"∞":{"ha":1736,"x_min":0,"x_max":1563,"o":"m 521 694 l 347 694 l 347 521 l 521 521 l 521 694 m 1389 521 l 1389 347 l 868 347 l 868 521 l 694 521 l 694 347 l 174 347 l 174 521 l 0 521 l 0 694 l 174 694 l 174 868 l 694 868 l 694 694 l 868 694 l 868 868 l 1389 868 l 1389 694 l 1563 694 l 1563 521 l 1389 521 m 1215 694 l 1042 694 l 1042 521 l 1215 521 l 1215 694 z "},"≤":{"ha":1042,"x_min":0,"x_max":868,"o":"m 521 1389 l 521 1563 l 868 1563 l 868 1389 l 694 1389 l 694 1215 l 521 1215 l 521 1042 l 347 1042 l 347 868 l 521 868 l 521 694 l 694 694 l 694 521 l 868 521 l 868 347 l 521 347 l 521 521 l 347 521 l 347 694 l 174 694 l 174 868 l 0 868 l 0 1042 l 174 1042 l 174 1215 l 347 1215 l 347 1389 l 521 1389 m 0 174 l 868 174 l 868 0 l 0 0 l 0 174 z "},"≥":{"ha":1042,"x_min":0,"x_max":868,"o":"m 347 1389 l 519 1389 l 519 1215 l 694 1215 l 694 1042 l 868 1042 l 868 868 l 694 868 l 694 694 l 519 694 l 519 521 l 347 521 l 347 347 l 0 347 l 0 521 l 174 521 l 174 694 l 347 694 l 347 868 l 521 868 l 521 1042 l 347 1042 l 347 1215 l 174 1215 l 174 1389 l 0 1389 l 0 1563 l 347 1563 l 347 1389 m 867 174 l 867 0 l 0 0 l 0 174 l 867 174 z "},"∂":{"ha":1215,"x_min":0,"x_max":1042,"o":"m 694 868 l 528 868 l 528 694 l 353 694 l 353 347 l 526 347 l 526 174 l 694 174 l 694 868 m 349 1389 l 694 1389 l 694 1215 l 868 1215 l 868 1042 l 1042 1042 l 1042 174 l 868 174 l 868 0 l 347 0 l 347 174 l 174 174 l 174 347 l 0 347 l 0 694 l 174 694 l 174 868 l 347 868 l 347 1042 l 522 1042 l 522 1215 l 349 1215 l 349 1389 z "},"∑":{"ha":1215,"x_min":0,"x_max":1042,"o":"m 694 347 l 1042 347 l 1042 0 l 0 0 l 0 347 l 174 347 l 174 521 l 347 521 l 347 694 l 521 694 l 521 868 l 347 868 l 347 1042 l 174 1042 l 174 1215 l 0 1215 l 0 1563 l 1042 1563 l 1042 1215 l 694 1215 l 694 1389 l 347 1389 l 347 1215 l 519 1215 l 519 1042 l 694 1042 l 694 868 l 868 868 l 868 694 l 694 694 l 694 521 l 519 521 l 519 347 l 347 347 l 347 174 l 694 174 l 694 347 z "},"∏":{"ha":1389,"x_min":0,"x_max":1215,"o":"m 1215 1389 l 1215 1215 l 1042 1215 l 1042 0 l 694 0 l 694 1215 l 521 1215 l 521 0 l 174 0 l 174 1215 l 0 1215 l 0 1389 l 1215 1389 z "},"π":{"ha":1389,"x_min":0,"x_max":1215,"o":"m 1215 868 l 1215 694 l 1042 694 l 1042 0 l 694 0 l 694 694 l 521 694 l 521 0 l 174 0 l 174 694 l 0 694 l 0 868 l 1215 868 z "},"∫":{"ha":868,"x_min":0,"x_max":694,"o":"m 0 -174 l 174 -174 l 174 1563 l 347 1563 l 347 1736 l 694 1736 l 694 1563 l 521 1563 l 521 -174 l 347 -174 l 347 -347 l 0 -347 l 0 -174 z "},"Ω":{"ha":1389,"x_min":0,"x_max":1215,"o":"m 1042 347 l 1042 174 l 1215 174 l 1215 0 l 694 0 l 694 347 l 867 347 l 867 1213 l 347 1214 l 347 347 l 521 347 l 521 0 l 0 0 l 0 174 l 174 174 l 174 347 l 0 347 l 0 1215 l 174 1215 l 174 1389 l 1040 1389 l 1040 1215 l 1215 1215 l 1215 347 l 1042 347 z "},"√":{"ha":1563,"x_min":0,"x_max":1389,"o":"m 868 1389 l 1389 1389 l 1389 1215 l 1215 1215 l 1215 868 l 1042 868 l 1042 521 l 868 521 l 868 174 l 694 174 l 694 0 l 347 0 l 347 174 l 174 174 l 174 347 l 0 347 l 0 521 l 347 521 l 347 347 l 521 347 l 521 521 l 694 521 l 694 868 l 868 868 l 868 1389 z "},"≈":{"ha":1215,"x_min":0,"x_max":1042,"o":"m 1042 1042 l 868 1042 l 868 868 l 521 868 l 521 1042 l 174 1042 l 174 868 l 0 868 l 0 1215 l 174 1215 l 174 1389 l 521 1389 l 521 1215 l 868 1215 l 868 1389 l 1042 1389 l 1042 1042 m 1042 347 l 868 347 l 868 174 l 521 174 l 521 347 l 174 347 l 174 174 l 0 174 l 0 521 l 174 521 l 174 694 l 521 694 l 521 521 l 868 521 l 868 694 l 1042 694 l 1042 347 z "},"Δ":{"ha":1389,"x_min":0,"x_max":1215,"o":"m 521 1042 l 521 694 l 347 694 l 347 349 l 868 349 l 868 694 l 694 694 l 694 1042 l 521 1042 m 868 1388 l 868 1042 l 1042 1042 l 1042 694 l 1215 694 l 1215 175 l 0 175 l 0 694 l 174 694 l 174 1042 l 347 1042 l 347 1388 l 868 1388 z "},"◊":{"ha":1042,"x_min":0,"x_max":868,"o":"m 521 868 l 347 868 l 347 694 l 521 694 l 521 868 m 521 521 l 521 347 l 347 347 l 347 521 l 174 521 l 174 694 l 0 694 l 0 868 l 174 868 l 174 1042 l 347 1042 l 347 1215 l 521 1215 l 521 1042 l 694 1042 l 694 868 l 868 868 l 868 694 l 694 694 l 694 521 l 521 521 z "},"⁄":{"ha":1215,"x_min":0,"x_max":1042,"o":"m 1042 1736 l 1042 1389 l 868 1389 l 868 1042 l 694 1042 l 694 694 l 521 694 l 521 347 l 347 347 l 347 0 l 0 0 l 0 347 l 174 347 l 174 694 l 347 694 l 347 1042 l 521 1042 l 521 1389 l 694 1389 l 694 1736 l 1042 1736 z "},"":{"ha":1215,"x_min":0,"x_max":1042,"o":"m 694 868 l 521 868 l 521 0 l 174 0 l 174 868 l 0 868 l 0 1042 l 174 1042 l 174 1389 l 347 1389 l 347 1563 l 1042 1563 l 1042 1389 l 521 1389 l 521 1042 l 1042 1042 l 1042 0 l 694 0 l 694 868 z "},"":{"ha":1215,"x_min":0,"x_max":1042,"o":"m 521 1389 l 521 1042 l 694 1042 l 694 1389 l 521 1389 m 1042 1563 l 1042 0 l 694 0 l 694 868 l 521 868 l 521 0 l 174 0 l 174 868 l 0 868 l 0 1042 l 174 1042 l 174 1389 l 347 1389 l 347 1563 l 1042 1563 z "},"":{"ha":4340,"x_min":0,"x_max":3993,"o":"m 2431 521 l 3299 521 l 3299 0 l 3125 0 l 3125 347 l 2951 347 l 2951 0 l 2778 0 l 2778 347 l 2604 347 l 2604 0 l 2431 0 l 2431 521 m 2083 521 l 2257 521 l 2257 0 l 2083 0 l 2083 521 m 1389 521 l 1910 521 l 1910 0 l 1736 0 l 1736 347 l 1563 347 l 1563 0 l 1389 0 l 1389 521 m 1042 521 l 1215 521 l 1215 0 l 1042 0 l 1042 521 m 0 521 l 868 521 l 868 0 l 694 0 l 694 347 l 521 347 l 521 0 l 347 0 l 347 347 l 174 347 l 174 0 l 0 0 l 0 521 m 3993 0 l 3472 0 l 3472 521 l 3646 521 l 3646 174 l 3993 174 l 3993 0 z "},"ı":{"ha":521,"x_min":0,"x_max":347,"o":"m 0 0 l 0 521 l 347 521 l 347 0 l 0 0 z "},"˘":{"ha":1042,"x_min":0,"x_max":869,"o":"m 521 1215 l 521 1389 l 869 1389 l 869 1215 l 696 1215 l 696 1042 l 174 1042 l 174 1215 l 0 1215 l 0 1389 l 349 1389 l 349 1215 l 521 1215 z "},"˙":{"ha":521,"x_min":0,"x_max":347,"o":"m 0 1389 l 347 1389 l 347 1042 l 0 1042 l 0 1389 z "},"˚":{"ha":1042,"x_min":0,"x_max":868,"o":"m 694 1042 l 694 868 l 174 868 l 174 1042 l 0 1042 l 0 1215 l 174 1215 l 174 1389 l 694 1389 l 694 1215 l 868 1215 l 868 1042 l 694 1042 m 521 1215 l 347 1215 l 347 1042 l 521 1042 l 521 1215 z "},"˝":{"ha":1215,"x_min":0,"x_max":1042,"o":"m 521 1215 l 694 1215 l 694 1389 l 1042 1389 l 1042 1215 l 868 1215 l 868 1042 l 521 1042 l 521 1215 l 347 1215 l 347 1042 l 0 1042 l 0 1215 l 174 1215 l 174 1389 l 521 1389 l 521 1215 z "},"˛":{"ha":521,"x_min":0,"x_max":347,"o":"m 174 -174 l 347 -174 l 347 -347 l 174 -347 l 174 -174 l 0 -174 l 0 0 l 174 0 l 174 174 l 347 174 l 347 0 l 174 0 l 174 -174 z "},"ˇ":{"ha":1042,"x_min":0,"x_max":869,"o":"m 521 1215 l 521 1389 l 869 1389 l 869 1215 l 696 1215 l 696 1042 l 174 1042 l 174 1215 l 0 1215 l 0 1389 l 349 1389 l 349 1215 l 521 1215 z "}}}
